<?xml version="1.0" encoding="utf-8"?>
<!-- Generator: Adobe Illustrator 22.0.1, SVG Export Plug-In . SVG Version: 6.00 Build 0)  -->
<svg version="1.1" id="Layer_1" xmlns="http://www.w3.org/2000/svg" xmlns:xlink="http://www.w3.org/1999/xlink" x="0px" y="0px"
	 viewBox="0 0 260 90" style="enable-background:new 0 0 260 90;" xml:space="preserve">
<style type="text/css">
	.st0{fill:none;stroke:#9FC85E;stroke-width:0.75;stroke-linecap:round;stroke-miterlimit:10;}
	.st1{fill:none;stroke:#9FC85E;stroke-width:0.75;stroke-linecap:round;stroke-miterlimit:10;stroke-dasharray:1.969,1.969;}
	.st2{fill:#F1F6E9;stroke:#9FC85E;stroke-width:0.75;stroke-miterlimit:10;}
	.st3{fill:none;stroke:#9FC85E;stroke-linecap:round;stroke-miterlimit:10;}
	.st4{fill:#9FC85E;}
</style>
<g>
	<g>
		<line class="st0" x1="216.4" y1="50" x2="214.4" y2="50"/>
		<line class="st1" x1="210.2" y1="50" x2="47.7" y2="50"/>
		<line class="st0" x1="45.6" y1="50" x2="43.6" y2="50"/>
	</g>
</g>
<circle class="st2" cx="132.4" cy="50" r="38.4"/>
<g>
	<g>
		<path class="st3" d="M137.2,28.7c9.1,2.3,15.9,10.8,15.9,20.8c0,10.7-6.6,18.6-16.6,20.2"/>
		<g>
			<path class="st3" d="M141.4,57.3l-4.6,12c-0.1,0.3,0,0.7,0.4,0.8l11.5,3.9"/>
		</g>
	</g>
	<g>
		<path class="st3" d="M127.6,69.6c-9.1-2.3-15.9-10.8-15.9-20.8c0-10.7,6.6-18.6,16.6-20.2"/>
		<g>
			<path class="st3" d="M123.3,41l4.6-12c0.1-0.3,0-0.7-0.4-0.8l-11.5-3.9"/>
		</g>
	</g>
</g>
<polygon class="st4" points="186,55.8 170.8,49.3 186,42.7 "/>
<polygon class="st4" points="78.8,43.5 93.9,50 78.8,56.5 "/>
</svg>
