<?xml version="1.0" encoding="utf-8"?>
<!-- Generator: Adobe Illustrator 22.0.1, SVG Export Plug-In . SVG Version: 6.00 Build 0)  -->
<svg version="1.1" id="Layer_1" xmlns="http://www.w3.org/2000/svg" xmlns:xlink="http://www.w3.org/1999/xlink" x="0px" y="0px"
	 viewBox="0 0 260 90" style="enable-background:new 0 0 260 90;" xml:space="preserve">
<style type="text/css">
	.st0{fill:#F1F6E9;stroke:#9FC85E;stroke-width:0.75;stroke-miterlimit:10;}
	.st1{fill:#CBE0A9;stroke:#9FC85E;stroke-width:0.75;stroke-miterlimit:10;}
	.st2{fill:#FFFFFF;stroke:#9FC85E;stroke-width:0.75;stroke-miterlimit:10;}
	.st3{fill:none;stroke:#9FC85E;stroke-width:0.75;stroke-miterlimit:10;}
</style>
<g>
	<path class="st0" d="M194.3,76.2c0,1.7-1.4,3-3,3H77c-1.7,0-3-1.4-3-3V9.1c0-1.7,1.4-3,3-3h114.2c1.7,0,3,1.4,3,3L194.3,76.2
		L194.3,76.2z"/>
	<path class="st0" d="M194.3,79.2H74V9.1c0-1.7,1.4-3,3-3h114.2c1.7,0,3,1.4,3,3L194.3,79.2L194.3,79.2z"/>
</g>
<g>
	<path class="st0" d="M205.4,85.6c0,1.7-1.4,3-3,3H65.9c-1.7,0-3-1.4-3-3v-3.3c0-1.7,1.4-3,3-3h136.5c1.7,0,3,1.4,3,3V85.6z"/>
	<path class="st0" d="M205.4,85.6c0,1.7-1.4,3-3,3H65.9c-1.7,0-3-1.4-3-3v-6.4h142.6V85.6z"/>
</g>
<g>
	<path class="st1" d="M150.7,82.4c0,0.8-0.3,1.5-0.7,1.5h-31.7c-0.4,0-0.7-0.7-0.7-1.5v-1.7c0-0.8,0.3-1.5,0.7-1.5H150
		c0.4,0,0.7,0.7,0.7,1.5L150.7,82.4L150.7,82.4z"/>
	<path class="st1" d="M150.7,82.4c0,0.8-0.3,1.5-0.7,1.5h-31.7c-0.4,0-0.7-0.7-0.7-1.5v-3.2h33.1L150.7,82.4L150.7,82.4z"/>
</g>
<rect x="78.5" y="9.9" class="st2" width="111.2" height="69.3"/>
<path class="st3" d="M151.9,70.8c0,0.8-0.7,1.5-1.5,1.5h-35.5c-0.8,0-1.5-0.7-1.5-1.5V42.1h38.5V70.8z"/>
<g>
	<path class="st3" d="M147.2,63.5c0,0.8-0.7,1.5-1.5,1.5h-11.1c-0.8,0-1.5-0.7-1.5-1.5v-8c0-0.8,0.7-1.5,1.5-1.5h11.1
		c0.8,0,1.5,0.7,1.5,1.5V63.5z"/>
</g>
<g>
	<path class="st3" d="M128.4,70.8c0,0.8-0.7,1.5-1.5,1.5h-7.8c-0.8,0-1.5-0.7-1.5-1.5V55.4c0-0.8,0.7-1.5,1.5-1.5h7.8
		c0.8,0,1.5,0.7,1.5,1.5V70.8z"/>
</g>
<g>
	<path class="st3" d="M146.5,28.4c0.8,0,1.9,0.6,2.4,1.3l7.8,11.2c0.5,0.7,0.2,1.3-0.7,1.3h-46.9c-0.8,0-1.1-0.6-0.7-1.3l7.8-11.2
		c0.5-0.7,1.6-1.3,2.4-1.3H146.5z"/>
</g>
<g>
	<circle class="st3" cx="114.6" cy="40.3" r="12.7"/>
	<rect x="86" y="55.6" transform="matrix(0.7073 -0.7069 0.7069 0.7073 -12.0665 85.7244)" class="st0" width="23" height="3.7"/>
</g>
</svg>
