<?xml version="1.0" encoding="utf-8"?>
<!-- Generator: Adobe Illustrator 22.0.1, SVG Export Plug-In . SVG Version: 6.00 Build 0)  -->
<svg version="1.1" xmlns="http://www.w3.org/2000/svg" xmlns:xlink="http://www.w3.org/1999/xlink" x="0px" y="0px"
	 viewBox="0 0 300 185" style="enable-background:new 0 0 300 185;" xml:space="preserve">
<style type="text/css">
	.st0{display:none;}
	.st1{display:inline;}
	.st2{fill:none;stroke:#9FC85E;stroke-width:0.75;stroke-linecap:round;stroke-miterlimit:10;stroke-dasharray:2.0113,2.0113;}
	.st3{fill:none;stroke:#9FC85E;stroke-width:0.75;stroke-linecap:round;stroke-miterlimit:10;}
	.st4{display:inline;fill:#9FC85E;}
	.st5{font-family:'Verdana';}
	.st6{font-size:7px;}
	.st7{fill:#F1F1F1;stroke:#B7B6B6;stroke-width:0.75;stroke-miterlimit:10;}
	.st8{fill:#F1F1F1;stroke:#B7B6B6;stroke-miterlimit:10;}
	.st9{display:inline;fill:#FFFFFF;stroke:#B7B6B6;stroke-miterlimit:10;}
	.st10{fill:#F1F6E9;stroke:#9FC85E;stroke-width:0.75;stroke-miterlimit:10;}
	.st11{fill:#CBE0A9;stroke:#9FC85E;stroke-width:0.75;stroke-miterlimit:10;}
	.st12{display:inline;fill:#FFFFFF;stroke:#9FC85E;stroke-width:0.75;stroke-miterlimit:10;}
	.st13{display:inline;fill:#F1F6E9;stroke:#9FC85E;stroke-width:0.75;stroke-miterlimit:10;}
	.st14{fill:none;stroke:#9FC85E;stroke-linecap:round;stroke-miterlimit:10;}
	.st15{display:inline;fill:#B7B6B6;}
	.st16{font-family:'ArialMT';}
	.st17{font-size:8px;}
	.st18{display:inline;fill:none;stroke:#9FC85E;stroke-width:0.75;stroke-miterlimit:10;}
	.st19{fill:none;stroke:#9FC85E;stroke-width:0.75;stroke-miterlimit:10;}
	.st20{display:inline;fill:none;stroke:#B7B6B6;stroke-miterlimit:10;}
	.st21{fill:#FFFFFF;stroke:#B7B6B6;stroke-miterlimit:10;}
	.st22{fill:#B7B6B6;}
	.st23{fill:none;}
	.st24{fill:none;stroke:#B7B6B6;stroke-width:0.75;stroke-linecap:round;stroke-miterlimit:10;}
	.st25{fill:none;stroke:#B7B6B6;stroke-width:0.75;stroke-linecap:round;stroke-miterlimit:10;stroke-dasharray:1.8917,1.8917;}
	.st26{fill:none;stroke:#B7B6B6;stroke-width:0.75;stroke-linecap:round;stroke-miterlimit:10;stroke-dasharray:2.0349,2.0349;}
	.st27{display:inline;fill:none;stroke:#8A1812;stroke-width:0.75;stroke-linecap:round;stroke-miterlimit:10;}
	.st28{font-size:6px;}
	.st29{fill:#9FC85E;}
	.st30{font-family:'AvenirNext-Medium';}
	.st31{fill:#FFFFFF;stroke:#9FC85E;stroke-width:0.75;stroke-miterlimit:10;}
	.st32{fill:none;stroke:#B7B6B6;stroke-miterlimit:10;}
	.st33{fill:none;stroke:#8A1812;stroke-width:0.75;stroke-linecap:round;stroke-miterlimit:10;}
	.st34{display:inline;enable-background:new    ;}
</style>
<g id="Orgineel" class="st0">
	<g class="st1">
		<g>
			<path class="st2" d="M250,51.5V34.4c0-4.4-3.6-8-8-8h-10.5"/>
			<path class="st2" d="M204.6,26.4h-50.9"/>
			<line class="st3" x1="250" y1="53.5" x2="250" y2="52.5"/>
		</g>
	</g>
	<text transform="matrix(1 0 0 1 206.8888 28.8332)" class="st4 st5 st6">Issues</text>
	<text transform="matrix(1 0 0 1 72.3211 28.8331)" class="st4 st5 st6">Issues</text>
	<g id="_x35_fZrkj.tif_1_" class="st1">
	</g>
	<g class="st1">
		<path class="st7" d="M89.5,108.6c0,1.1-0.9,2-2,2h-75c-1.1,0-2-0.9-2-2V64.5c0-1.1,0.9-2,2-2h75c1.1,0,2,0.9,2,2V108.6z"/>
		<path class="st7" d="M89.5,110.6h-79V64.5c0-1.1,0.9-2,2-2h75c1.1,0,2,0.9,2,2V110.6z"/>
	</g>
	<g class="st1">
		<path class="st7" d="M96.8,114.8c0,1.1-0.9,2-2,2H5.2c-1.1,0-2-0.9-2-2v-2.2c0-1.1,0.9-2,2-2h89.6c1.1,0,2,0.9,2,2V114.8z"/>
		<path class="st7" d="M96.8,114.8c0,1.1-0.9,2-2,2H5.2c-1.1,0-2-0.9-2-2v-4.2h93.6V114.8z"/>
	</g>
	<g class="st1">
		<path class="st8" d="M60.9,112.7c0,0.5-0.2,1-0.5,1H39.6c-0.3,0-0.5-0.4-0.5-1v-1.1c0-0.5,0.2-1,0.5-1h20.8c0.3,0,0.5,0.4,0.5,1
			V112.7z"/>
		<path class="st8" d="M60.9,112.7c0,0.5-0.2,1-0.5,1H39.6c-0.3,0-0.5-0.4-0.5-1v-2.1h21.8V112.7z"/>
	</g>
	<rect x="13.6" y="65.1" class="st9" width="73" height="45.5"/>
	<g class="st1">
		<path class="st10" d="M289.5,108.6c0,1.1-0.9,2-2,2h-75c-1.1,0-2-0.9-2-2V64.5c0-1.1,0.9-2,2-2h75c1.1,0,2,0.9,2,2V108.6z"/>
		<path class="st10" d="M289.5,110.6h-79V64.5c0-1.1,0.9-2,2-2h75c1.1,0,2,0.9,2,2V110.6z"/>
	</g>
	<g class="st1">
		<path class="st10" d="M296.8,114.8c0,1.1-0.9,2-2,2h-89.6c-1.1,0-2-0.9-2-2v-2.2c0-1.1,0.9-2,2-2h89.6c1.1,0,2,0.9,2,2V114.8z"/>
		<path class="st10" d="M296.8,114.8c0,1.1-0.9,2-2,2h-89.6c-1.1,0-2-0.9-2-2v-4.2h93.6V114.8z"/>
	</g>
	<g class="st1">
		<path class="st11" d="M260.9,112.7c0,0.5-0.2,1-0.5,1h-20.8c-0.3,0-0.5-0.4-0.5-1v-1.1c0-0.5,0.2-1,0.5-1h20.8
			c0.3,0,0.5,0.4,0.5,1L260.9,112.7L260.9,112.7z"/>
		<path class="st11" d="M260.9,112.7c0,0.5-0.2,1-0.5,1h-20.8c-0.3,0-0.5-0.4-0.5-1v-2.1h21.8L260.9,112.7L260.9,112.7z"/>
	</g>
	<rect x="213.5" y="65.1" class="st12" width="73" height="45.5"/>
	<circle class="st13" cx="250" cy="62.5" r="9"/>
	<g class="st1">
		<g>
			<path class="st14" d="M251.1,57.5c2.1,0.5,3.7,2.5,3.7,4.9c0,2.5-1.5,4.4-3.9,4.8"/>
			<g>
				<path class="st14" d="M252.1,64.2l-1,2.7c-0.1,0.2,0,0.3,0.2,0.4l2.6,0.9"/>
			</g>
		</g>
		<g>
			<path class="st14" d="M248.9,67.1c-2.1-0.5-3.7-2.5-3.7-4.9c0-2.5,1.5-4.4,3.9-4.8"/>
			<g>
				<path class="st14" d="M247.9,60.4l1-2.7c0.1-0.2,0-0.3-0.2-0.4l-2.6-0.9"/>
			</g>
		</g>
	</g>
	<g class="st1">
		<g>
			<path class="st2" d="M68.5,26.6H58c-4.4,0-8,3.6-8,8v17.1"/>
			<path class="st2" d="M146.3,26.6H95.4"/>
			<line class="st3" x1="50" y1="52.7" x2="50" y2="53.7"/>
		</g>
	</g>
	<g class="st1">
		<path class="st10" d="M170.2,16.9c-0.1-8.8-7.3-16.2-16.1-16.2c-5.6,0-10.9,3-13.8,7.4c-1.3-0.8-2.8-1.3-4.5-1.3
			c-4.5,0-8.1,3.6-8.1,8.1c0,0.2,0,0.3,0,0.5c0,0.2,0,0.4,0,0.6c-4,1.9-7.1,6.5-7.1,11.3c0,6.6,5.4,12,12,12h24.8c0.1,0,0.3,0,0.4,0
			c0.1,0,0.3,0,0.4,0h9.9c6.1,0,11.1-5,11.1-11.1C179.3,22.5,175.4,17.8,170.2,16.9L170.2,16.9z"/>
		<g>
			<path class="st10" d="M170.2,16.9c-0.1-8.8-7.3-16.2-16.1-16.2c-5.6,0-10.9,3-13.8,7.4c-1.3-0.8-2.8-1.3-4.5-1.3
				c-4.5,0-8.1,3.6-8.1,8.1c0,0.2,0,0.3,0,0.5c0,0.2,0,0.4,0,0.6c-4,1.9-7.1,6.5-7.1,11.3c0,6.6,5.4,12,12,12h24.8
				c0.1,0,0.3,0,0.4,0c0.1,0,0.3,0,0.4,0h9.9c6.1,0,11.1-5,11.1-11.1C179.3,22.5,175.4,17.8,170.2,16.9L170.2,16.9z"/>
		</g>
		<path class="st10" d="M170.2,16.9c0,0-2.6-0.4-5.1,0"/>
		<g>
			<path class="st10" d="M170.2,16.9c0,0-2.6-0.4-5.1,0"/>
		</g>
		<path class="st10" d="M127.8,14.8c0-4.5,3.6-8.1,8.1-8.1c4.5,0,8.1,3.6,8.1,8.1"/>
		<g>
			<path class="st10" d="M127.8,14.8c0-4.5,3.6-8.1,8.1-8.1c4.5,0,8.1,3.6,8.1,8.1"/>
		</g>
	</g>
	<polygon class="st4" points="113.4,23.5 120.7,26.6 113.4,29.7 	"/>
	<polygon class="st4" points="53.1,46.4 50,53.7 46.9,46.4 	"/>
	<text transform="matrix(1 0 0 1 78.1819 174.1819)" class="st15 st5 st6">Model</text>
	<text transform="matrix(1 0 0 1 199.9024 174.1819)" class="st15 st5 st6">Model</text>
	<text transform="matrix(1 0 0 1 132.4377 34.7473)" class="st4 st16 st17">BIMcollab</text>
	<path class="st18" d="M261.7,105.1c0,0.6-0.4,1-1,1h-23.3c-0.6,0-1-0.4-1-1V86.2h25.3V105.1L261.7,105.1z"/>
	<g class="st1">
		<path class="st19" d="M258.6,100.2c0,0.6-0.4,1-1,1h-7.3c-0.5,0-1-0.4-1-1v-5.3c0-0.6,0.5-1,1-1h7.3c0.6,0,1,0.4,1,1V100.2z"/>
	</g>
	<g class="st1">
		<path class="st19" d="M246.2,105.1c0,0.6-0.5,1-1,1h-5.1c-0.5,0-1-0.4-1-1V94.9c0-0.6,0.5-1,1-1h5.1c0.5,0,1,0.4,1,1V105.1z"/>
	</g>
	<g class="st1">
		<path class="st19" d="M258.1,77.2c0.5,0,1.3,0.4,1.6,0.8l5.1,7.4c0.3,0.5,0.1,0.8-0.4,0.8h-30.8c-0.6,0-0.7-0.4-0.4-0.8l5.1-7.4
			c0.3-0.5,1-0.8,1.6-0.8H258.1z"/>
	</g>
	<path class="st20" d="M56.1,106.1H38.4c-0.5,0-1-0.4-1-1V86.2h25.3v12.2"/>
	<g class="st1">
		<path class="st21" d="M59.6,100.2c0,0.6-0.4,1-1,1h-7.3c-0.6,0-1-0.4-1-1v-5.3c0-0.6,0.4-1,1-1h7.3c0.6,0,1,0.4,1,1
			C59.6,94.9,59.6,100.2,59.6,100.2z"/>
	</g>
	<g class="st1">
		<path class="st21" d="M47.2,105.1c0,0.6-0.5,1-1,1h-5.1c-0.5,0-1-0.4-1-1V94.9c0-0.6,0.5-1,1-1h5.1c0.5,0,1,0.4,1,1V105.1z"/>
	</g>
	<g class="st1">
		<path class="st21" d="M59.1,77.2c0.5,0,1.3,0.4,1.6,0.8l5.1,7.4c0.3,0.5,0.1,0.8-0.4,0.8H34.6c-0.5,0-0.7-0.4-0.4-0.8l5.1-7.4
			c0.3-0.5,1-0.8,1.6-0.8H59.1z"/>
	</g>
	<g class="st1">
		<circle class="st19" cx="237.2" cy="85" r="8.3"/>
		
			<rect x="218.4" y="95" transform="matrix(0.7073 -0.7069 0.7069 0.7073 -1.9125 187.8985)" class="st10" width="15.1" height="2.4"/>
	</g>
	<g class="st1">
		<path class="st7" d="M170.2,161.6c-0.1-8.8-7.3-16.2-16.1-16.2c-5.6,0-10.9,3-13.8,7.4c-1.3-0.8-2.8-1.3-4.5-1.3
			c-4.5,0-8.1,3.6-8.1,8.1c0,0.1,0,0.3,0,0.5c0,0.2,0,0.4,0,0.6c-4,1.9-7.1,6.5-7.1,11.3c0,6.6,5.4,12,12,12h24.8c0.1,0,0.3,0,0.4,0
			c0.1,0,0.3,0,0.4,0h9.9c6.1,0,11.1-5,11.1-11.1C179.3,167.3,175.4,162.6,170.2,161.6L170.2,161.6z"/>
		<g>
			<path class="st7" d="M170.2,161.6c-0.1-8.8-7.3-16.2-16.1-16.2c-5.6,0-10.9,3-13.8,7.4c-1.3-0.8-2.8-1.3-4.5-1.3
				c-4.5,0-8.1,3.6-8.1,8.1c0,0.1,0,0.3,0,0.5c0,0.2,0,0.4,0,0.6c-4,1.9-7.1,6.5-7.1,11.3c0,6.6,5.4,12,12,12h24.8
				c0.1,0,0.3,0,0.4,0c0.1,0,0.3,0,0.4,0h9.9c6.1,0,11.1-5,11.1-11.1C179.3,167.3,175.4,162.6,170.2,161.6L170.2,161.6z"/>
		</g>
		<path class="st7" d="M170.2,161.6c0,0-2.6-0.4-5.1,0"/>
		<g>
			<path class="st7" d="M170.2,161.6c0,0-2.6-0.4-5.1,0"/>
		</g>
		<path class="st7" d="M127.8,159.6c0-4.5,3.6-8.1,8.1-8.1c4.5,0,8.1,3.6,8.1,8.1"/>
		<g>
			<path class="st7" d="M127.8,159.6c0-4.5,3.6-8.1,8.1-8.1c4.5,0,8.1,3.6,8.1,8.1"/>
		</g>
	</g>
	<text transform="matrix(1 0 0 1 125.9889 170.8528)" class="st15 st5 st6">File sharing,</text>
	<text transform="matrix(1 0 0 1 137.5856 179.2532)" class="st15 st5 st6"> PMS </text>
	<g class="st1">
		<polygon class="st22" points="63.3,103.1 56,106.1 58.9,98.7 		"/>
		
			<rect x="59.1" y="91.1" transform="matrix(0.7071 -0.7071 0.7071 0.7071 -46.7659 75.5616)" class="st22" width="17.5" height="6.3"/>
		<rect x="74.3" y="83.2" transform="matrix(0.7069 -0.7073 0.7073 0.7069 -38.8479 78.872)" class="st22" width="3" height="6.3"/>
	</g>
	<g class="st1">
		<line class="st23" x1="102" y1="171.8" x2="117.2" y2="171.8"/>
		<g>
			<line class="st24" x1="102" y1="171.8" x2="103" y2="171.8"/>
			<line class="st25" x1="104.8" y1="171.8" x2="115.2" y2="171.8"/>
			<line class="st24" x1="116.2" y1="171.8" x2="117.2" y2="171.8"/>
		</g>
	</g>
	<g class="st1">
		<g>
			<line class="st24" x1="50" y1="117.4" x2="50" y2="118.4"/>
			<path class="st26" d="M50,120.4v44.1c0,4.4,3.6,7.9,8,7.9h15.6"/>
			<line class="st24" x1="74.7" y1="172.4" x2="75.7" y2="172.4"/>
		</g>
	</g>
	<path class="st27" d="M52.6,34.6"/>
	<path class="st27" d="M60.6,26.6"/>
	<polygon class="st15" points="246.9,124 250,116.8 253.1,124 	"/>
	<g class="st1">
		<polygon class="st22" points="46.9,123.8 50,116.5 53.1,123.8 		"/>
	</g>
	<g class="st1">
		<polygon class="st22" points="113.1,168.8 120.3,171.9 113.1,175.1 		"/>
	</g>
	<polygon class="st15" points="186.4,175.1 179.2,171.9 186.4,168.8 	"/>
	<g class="st1">
		<circle class="st10" cx="50" cy="62.5" r="9"/>
		<g>
			<g>
				<path class="st14" d="M51.1,57.5c2.1,0.5,3.7,2.5,3.7,4.9c0,2.5-1.5,4.4-3.9,4.8"/>
				<g>
					<path class="st14" d="M52.1,64.2l-1,2.7c-0.1,0.2,0,0.3,0.2,0.4l2.6,0.9"/>
				</g>
			</g>
			<g>
				<path class="st14" d="M48.9,67.1c-2.1-0.5-3.7-2.5-3.7-4.9c0-2.5,1.5-4.4,3.9-4.8"/>
				<g>
					<path class="st14" d="M47.9,60.4l1-2.7c0.1-0.2,0-0.3-0.2-0.4l-2.6-0.9"/>
				</g>
			</g>
		</g>
	</g>
	<polygon class="st4" points="253.1,46.2 250,53.5 246.9,46.2 	"/>
	<path class="st27" d="M260.4,34.4"/>
	<polygon class="st4" points="186.4,29.5 179.2,26.4 186.4,23.3 	"/>
	<g class="st1">
		<g>
			<line class="st24" x1="250" y1="117.5" x2="250" y2="116.5"/>
			<path class="st26" d="M226.4,171.6H242c4.4,0,8-3.6,8-7.9v-44.1"/>
			<line class="st24" x1="224.3" y1="171.6" x2="225.3" y2="171.6"/>
		</g>
	</g>
	<g class="st1">
		<line class="st23" x1="182.8" y1="171.8" x2="198" y2="171.8"/>
		<g>
			<line class="st24" x1="182.8" y1="171.8" x2="183.8" y2="171.8"/>
			<line class="st25" x1="185.7" y1="171.8" x2="196.1" y2="171.8"/>
			<line class="st24" x1="197" y1="171.8" x2="198" y2="171.8"/>
		</g>
	</g>
	<g class="st1">
		<rect x="55.7" y="120.3" class="st23" width="34" height="12"/>
		<text transform="matrix(1 0 0 1 55.6712 124.9034)"><tspan x="0" y="0" class="st22 st5 st28">Authoring </tspan><tspan x="0" y="7.2" class="st22 st5 st28">software</tspan></text>
	</g>
	<g class="st1">
		<rect x="195" y="120.3" class="st23" width="62" height="15"/>
		<text transform="matrix(1 0 0 1 195.0045 124.88)"><tspan x="0" y="0" class="st29 st30 st28">Model checker/</tspan><tspan x="0" y="7.2" class="st29 st30 st28">validation software</tspan></text>
	</g>
</g>
<g id="Images">
	<g>
		<g>
			<path class="st2" d="M250,51.5V34.4c0-4.4-3.6-8-8-8h-10.5"/>
			<path class="st2" d="M204.6,26.4h-50.9"/>
			<line class="st3" x1="250" y1="53.5" x2="250" y2="52.5"/>
		</g>
	</g>
	<g id="_x35_fZrkj.tif">
	</g>
	<g>
		<path class="st7" d="M89.5,108.6c0,1.1-0.9,2-2,2h-75c-1.1,0-2-0.9-2-2V64.5c0-1.1,0.9-2,2-2h75c1.1,0,2,0.9,2,2V108.6z"/>
		<path class="st7" d="M89.5,110.6h-79V64.5c0-1.1,0.9-2,2-2h75c1.1,0,2,0.9,2,2V110.6z"/>
	</g>
	<g>
		<path class="st7" d="M96.8,114.8c0,1.1-0.9,2-2,2H5.2c-1.1,0-2-0.9-2-2v-2.2c0-1.1,0.9-2,2-2h89.6c1.1,0,2,0.9,2,2V114.8z"/>
		<path class="st7" d="M96.8,114.8c0,1.1-0.9,2-2,2H5.2c-1.1,0-2-0.9-2-2v-4.2h93.6V114.8z"/>
	</g>
	<g>
		<path class="st8" d="M60.9,112.7c0,0.5-0.2,1-0.5,1H39.6c-0.3,0-0.5-0.4-0.5-1v-1.1c0-0.5,0.2-1,0.5-1h20.8c0.3,0,0.5,0.4,0.5,1
			V112.7z"/>
		<path class="st8" d="M60.9,112.7c0,0.5-0.2,1-0.5,1H39.6c-0.3,0-0.5-0.4-0.5-1v-2.1h21.8V112.7z"/>
	</g>
	<rect x="13.6" y="65.1" class="st21" width="73" height="45.5"/>
	<g>
		<path class="st10" d="M289.5,108.6c0,1.1-0.9,2-2,2h-75c-1.1,0-2-0.9-2-2V64.5c0-1.1,0.9-2,2-2h75c1.1,0,2,0.9,2,2V108.6z"/>
		<path class="st10" d="M289.5,110.6h-79V64.5c0-1.1,0.9-2,2-2h75c1.1,0,2,0.9,2,2V110.6z"/>
	</g>
	<g>
		<path class="st10" d="M296.8,114.8c0,1.1-0.9,2-2,2h-89.6c-1.1,0-2-0.9-2-2v-2.2c0-1.1,0.9-2,2-2h89.6c1.1,0,2,0.9,2,2V114.8z"/>
		<path class="st10" d="M296.8,114.8c0,1.1-0.9,2-2,2h-89.6c-1.1,0-2-0.9-2-2v-4.2h93.6V114.8z"/>
	</g>
	<g>
		<path class="st11" d="M260.9,112.7c0,0.5-0.2,1-0.5,1h-20.8c-0.3,0-0.5-0.4-0.5-1v-1.1c0-0.5,0.2-1,0.5-1h20.8
			c0.3,0,0.5,0.4,0.5,1L260.9,112.7L260.9,112.7z"/>
		<path class="st11" d="M260.9,112.7c0,0.5-0.2,1-0.5,1h-20.8c-0.3,0-0.5-0.4-0.5-1v-2.1h21.8L260.9,112.7L260.9,112.7z"/>
	</g>
	<rect x="213.5" y="65.1" class="st31" width="73" height="45.5"/>
	<circle class="st10" cx="250" cy="62.5" r="9"/>
	<g>
		<g>
			<path class="st14" d="M251.1,57.5c2.1,0.5,3.7,2.5,3.7,4.9c0,2.5-1.5,4.4-3.9,4.8"/>
			<g>
				<path class="st14" d="M252.1,64.2l-1,2.7c-0.1,0.2,0,0.3,0.2,0.4l2.6,0.9"/>
			</g>
		</g>
		<g>
			<path class="st14" d="M248.9,67.1c-2.1-0.5-3.7-2.5-3.7-4.9c0-2.5,1.5-4.4,3.9-4.8"/>
			<g>
				<path class="st14" d="M247.9,60.4l1-2.7c0.1-0.2,0-0.3-0.2-0.4l-2.6-0.9"/>
			</g>
		</g>
	</g>
	<g>
		<g>
			<path class="st2" d="M68.5,26.6H58c-4.4,0-8,3.6-8,8v17.1"/>
			<path class="st2" d="M146.3,26.6H95.4"/>
			<line class="st3" x1="50" y1="52.7" x2="50" y2="53.7"/>
		</g>
	</g>
	<g>
		<path class="st10" d="M170.2,16.9c-0.1-8.8-7.3-16.2-16.1-16.2c-5.6,0-10.9,3-13.8,7.4c-1.3-0.8-2.8-1.3-4.5-1.3
			c-4.5,0-8.1,3.6-8.1,8.1c0,0.2,0,0.3,0,0.5c0,0.2,0,0.4,0,0.6c-4,1.9-7.1,6.5-7.1,11.3c0,6.6,5.4,12,12,12h24.8c0.1,0,0.3,0,0.4,0
			c0.1,0,0.3,0,0.4,0h9.9c6.1,0,11.1-5,11.1-11.1C179.3,22.5,175.4,17.8,170.2,16.9L170.2,16.9z"/>
		<g>
			<path class="st10" d="M170.2,16.9c-0.1-8.8-7.3-16.2-16.1-16.2c-5.6,0-10.9,3-13.8,7.4c-1.3-0.8-2.8-1.3-4.5-1.3
				c-4.5,0-8.1,3.6-8.1,8.1c0,0.2,0,0.3,0,0.5c0,0.2,0,0.4,0,0.6c-4,1.9-7.1,6.5-7.1,11.3c0,6.6,5.4,12,12,12h24.8
				c0.1,0,0.3,0,0.4,0c0.1,0,0.3,0,0.4,0h9.9c6.1,0,11.1-5,11.1-11.1C179.3,22.5,175.4,17.8,170.2,16.9L170.2,16.9z"/>
		</g>
		<path class="st10" d="M170.2,16.9c0,0-2.6-0.4-5.1,0"/>
		<g>
			<path class="st10" d="M170.2,16.9c0,0-2.6-0.4-5.1,0"/>
		</g>
		<path class="st10" d="M127.8,14.8c0-4.5,3.6-8.1,8.1-8.1c4.5,0,8.1,3.6,8.1,8.1"/>
		<g>
			<path class="st10" d="M127.8,14.8c0-4.5,3.6-8.1,8.1-8.1c4.5,0,8.1,3.6,8.1,8.1"/>
		</g>
	</g>
	<polygon class="st29" points="113.4,23.5 120.7,26.6 113.4,29.7 	"/>
	<polygon class="st29" points="53.1,46.4 50,53.7 46.9,46.4 	"/>
	<text transform="matrix(1 0 0 1 132.4377 34.7473)" class="st29 st16 st17">BIMcollab</text>
	<path class="st19" d="M261.7,105.1c0,0.6-0.4,1-1,1h-23.3c-0.6,0-1-0.4-1-1V86.2h25.3V105.1L261.7,105.1z"/>
	<g>
		<path class="st19" d="M258.6,100.2c0,0.6-0.4,1-1,1h-7.3c-0.5,0-1-0.4-1-1v-5.3c0-0.6,0.5-1,1-1h7.3c0.6,0,1,0.4,1,1V100.2z"/>
	</g>
	<g>
		<path class="st19" d="M246.2,105.1c0,0.6-0.5,1-1,1h-5.1c-0.5,0-1-0.4-1-1V94.9c0-0.6,0.5-1,1-1h5.1c0.5,0,1,0.4,1,1V105.1z"/>
	</g>
	<g>
		<path class="st19" d="M258.1,77.2c0.5,0,1.3,0.4,1.6,0.8l5.1,7.4c0.3,0.5,0.1,0.8-0.4,0.8h-30.8c-0.6,0-0.7-0.4-0.4-0.8l5.1-7.4
			c0.3-0.5,1-0.8,1.6-0.8H258.1z"/>
	</g>
	<path class="st32" d="M56.1,106.1H38.4c-0.5,0-1-0.4-1-1V86.2h25.3v12.2"/>
	<g>
		<path class="st21" d="M59.6,100.2c0,0.6-0.4,1-1,1h-7.3c-0.6,0-1-0.4-1-1v-5.3c0-0.6,0.4-1,1-1h7.3c0.6,0,1,0.4,1,1
			C59.6,94.9,59.6,100.2,59.6,100.2z"/>
	</g>
	<g>
		<path class="st21" d="M47.2,105.1c0,0.6-0.5,1-1,1h-5.1c-0.5,0-1-0.4-1-1V94.9c0-0.6,0.5-1,1-1h5.1c0.5,0,1,0.4,1,1V105.1z"/>
	</g>
	<g>
		<path class="st21" d="M59.1,77.2c0.5,0,1.3,0.4,1.6,0.8l5.1,7.4c0.3,0.5,0.1,0.8-0.4,0.8H34.6c-0.5,0-0.7-0.4-0.4-0.8l5.1-7.4
			c0.3-0.5,1-0.8,1.6-0.8H59.1z"/>
	</g>
	<g>
		<circle class="st19" cx="237.2" cy="85" r="8.3"/>
		
			<rect x="218.4" y="95" transform="matrix(0.7073 -0.7069 0.7069 0.7073 -1.9125 187.8985)" class="st10" width="15.1" height="2.4"/>
	</g>
	<g>
		<path class="st7" d="M170.2,161.6c-0.1-8.8-7.3-16.2-16.1-16.2c-5.6,0-10.9,3-13.8,7.4c-1.3-0.8-2.8-1.3-4.5-1.3
			c-4.5,0-8.1,3.6-8.1,8.1c0,0.1,0,0.3,0,0.5c0,0.2,0,0.4,0,0.6c-4,1.9-7.1,6.5-7.1,11.3c0,6.6,5.4,12,12,12h24.8c0.1,0,0.3,0,0.4,0
			c0.1,0,0.3,0,0.4,0h9.9c6.1,0,11.1-5,11.1-11.1C179.3,167.3,175.4,162.6,170.2,161.6L170.2,161.6z"/>
		<g>
			<path class="st7" d="M170.2,161.6c-0.1-8.8-7.3-16.2-16.1-16.2c-5.6,0-10.9,3-13.8,7.4c-1.3-0.8-2.8-1.3-4.5-1.3
				c-4.5,0-8.1,3.6-8.1,8.1c0,0.1,0,0.3,0,0.5c0,0.2,0,0.4,0,0.6c-4,1.9-7.1,6.5-7.1,11.3c0,6.6,5.4,12,12,12h24.8
				c0.1,0,0.3,0,0.4,0c0.1,0,0.3,0,0.4,0h9.9c6.1,0,11.1-5,11.1-11.1C179.3,167.3,175.4,162.6,170.2,161.6L170.2,161.6z"/>
		</g>
		<path class="st7" d="M170.2,161.6c0,0-2.6-0.4-5.1,0"/>
		<g>
			<path class="st7" d="M170.2,161.6c0,0-2.6-0.4-5.1,0"/>
		</g>
		<path class="st7" d="M127.8,159.6c0-4.5,3.6-8.1,8.1-8.1c4.5,0,8.1,3.6,8.1,8.1"/>
		<g>
			<path class="st7" d="M127.8,159.6c0-4.5,3.6-8.1,8.1-8.1c4.5,0,8.1,3.6,8.1,8.1"/>
		</g>
	</g>
	<g>
		<polygon class="st22" points="63.3,103.1 56,106.1 58.9,98.7 		"/>
		
			<rect x="59.1" y="91.1" transform="matrix(0.7071 -0.7071 0.7071 0.7071 -46.7659 75.5616)" class="st22" width="17.5" height="6.3"/>
		<rect x="74.3" y="83.2" transform="matrix(0.7069 -0.7073 0.7073 0.7069 -38.8479 78.872)" class="st22" width="3" height="6.3"/>
	</g>
	<g>
		<line class="st23" x1="102" y1="171.8" x2="117.2" y2="171.8"/>
		<g>
			<line class="st24" x1="103" y1="171.8" x2="103" y2="171.8"/>
			<line class="st25" x1="104.8" y1="171.8" x2="115.2" y2="171.8"/>
			<line class="st24" x1="116.2" y1="171.8" x2="117.2" y2="171.8"/>
		</g>
	</g>
	<g>
		<g>
			<line class="st24" x1="50" y1="117.4" x2="50" y2="118.4"/>
			<path class="st26" d="M50,120.4v44.1c0,4.4,3.6,7.9,8,7.9h15.6"/>
			<line class="st24" x1="74.7" y1="172.4" x2="75.7" y2="172.4"/>
		</g>
	</g>
	<path class="st33" d="M52.6,34.6"/>
	<path class="st33" d="M60.6,26.6"/>
	<polygon class="st22" points="246.9,124 250,116.8 253.1,124 	"/>
	<g>
		<polygon class="st22" points="46.9,123.8 50,116.5 53.1,123.8 		"/>
	</g>
	<g>
		<polygon class="st22" points="113.1,168.8 120.3,171.9 113.1,175.1 		"/>
	</g>
	<polygon class="st22" points="186.4,175.1 179.2,171.9 186.4,168.8 	"/>
	<g>
		<circle class="st10" cx="50" cy="62.5" r="9"/>
		<g>
			<g>
				<path class="st14" d="M51.1,57.5c2.1,0.5,3.7,2.5,3.7,4.9c0,2.5-1.5,4.4-3.9,4.8"/>
				<g>
					<path class="st14" d="M52.1,64.2l-1,2.7c-0.1,0.2,0,0.3,0.2,0.4l2.6,0.9"/>
				</g>
			</g>
			<g>
				<path class="st14" d="M48.9,67.1c-2.1-0.5-3.7-2.5-3.7-4.9c0-2.5,1.5-4.4,3.9-4.8"/>
				<g>
					<path class="st14" d="M47.9,60.4l1-2.7c0.1-0.2,0-0.3-0.2-0.4l-2.6-0.9"/>
				</g>
			</g>
		</g>
	</g>
	<polygon class="st29" points="253.1,46.2 250,53.5 246.9,46.2 	"/>
	<path class="st33" d="M260.4,34.4"/>
	<polygon class="st29" points="186.4,29.5 179.2,26.4 186.4,23.3 	"/>
	<g>
		<g>
			<line class="st24" x1="250" y1="117.5" x2="250" y2="116.5"/>
			<path class="st26" d="M226.4,171.6H242c4.4,0,8-3.6,8-7.9v-44.1"/>
			<line class="st24" x1="224.3" y1="171.6" x2="225.3" y2="171.6"/>
		</g>
	</g>
	<g>
		<line class="st23" x1="182.8" y1="171.8" x2="198" y2="171.8"/>
		<g>
			<line class="st24" x1="182.8" y1="171.8" x2="183.8" y2="171.8"/>
			<line class="st25" x1="185.7" y1="171.8" x2="196.1" y2="171.8"/>
			<line class="st24" x1="197" y1="171.8" x2="197" y2="171.8"/>
		</g>
	</g>
</g>
<g id="Tekst__x7C__Engels">
	<text transform="matrix(1 0 0 1 208.8888 28.8337)" class="st29 st5 st6">Issues</text>
	<text transform="matrix(1 0 0 1 70.3211 28.8336)" class="st29 st5 st6">Issues</text>
	<text transform="matrix(1 0 0 1 78.1819 174.1824)" class="st22 st5 st6">Model</text>
	<text transform="matrix(1 0 0 1 199.9024 174.1824)" class="st22 st5 st6">Model</text>
	<text transform="matrix(1 0 0 1 128.4891 170.8533)" class="st22 st5 st6">File sharing,</text>
	<text transform="matrix(1 0 0 1 140.0857 179.2537)" class="st22 st5 st6"> PMS </text>
	<path class="st33" d="M52.6,34.6"/>
	<path class="st33" d="M60.6,26.6"/>
	<path class="st33" d="M260.4,34.4"/>
	<g>
		<rect x="55.7" y="120.3" class="st23" width="34" height="12"/>
		<text transform="matrix(1 0 0 1 55.6712 124.9039)"><tspan x="0" y="0" class="st22 st5 st28">Authoring </tspan><tspan x="0" y="7.2" class="st22 st5 st28">software</tspan></text>
	</g>
	<g>
		<rect x="195" y="120.3" class="st23" width="62" height="15"/>
		<text transform="matrix(1 0 0 1 195.0045 124.8805)"><tspan x="0" y="0" class="st29 st30 st28">Model checker/</tspan><tspan x="0" y="7.2" class="st29 st30 st28">validation software</tspan></text>
	</g>
</g>
<g id="Tekst__x7C__Spaans" class="st0">
	<text transform="matrix(1 0 0 1 208.8888 28.8337)" class="st4 st5 st6">Issues</text>
	<text transform="matrix(1 0 0 1 70.3211 28.8336)" class="st4 st5 st6">Issues</text>
	<text transform="matrix(1 0 0 1 77.1819 174.1824)" class="st15 st5 st6">Modelo</text>
	<text transform="matrix(1 0 0 1 197.9024 174.1824)" class="st15 st5 st6">Modelo</text>
	<text transform="matrix(1 0 0 1 131.7936 166.8533)" class="st34"><tspan x="0" y="0" class="st22 st5 st28">Intercambio</tspan><tspan x="-0.1" y="7.2" class="st22 st5 st28">de archivos,</tspan><tspan x="12" y="14.4" class="st22 st5 st28">SGP</tspan></text>
	<path class="st27" d="M52.6,34.6"/>
	<path class="st27" d="M60.6,26.6"/>
	<path class="st27" d="M260.4,34.4"/>
	<g class="st1">
		<rect x="55.7" y="120.3" class="st23" width="34" height="12"/>
		<text transform="matrix(1 0 0 1 55.6712 124.9039)"><tspan x="0" y="0" class="st22 st5 st28">Software </tspan><tspan x="0" y="7.2" class="st22 st5 st28">de autoría</tspan></text>
	</g>
	<g class="st1">
		<rect x="178.2" y="120.3" class="st23" width="68.5" height="23.8"/>
		<text transform="matrix(1 0 0 1 178.1712 124.88)"><tspan x="0" y="0" class="st29 st30 st28">Verificación de modelos </tspan><tspan x="0" y="7.2" class="st29 st30 st28">BIM/Herramientas de </tspan><tspan x="0" y="14.4" class="st29 st30 st28">validación</tspan></text>
	</g>
</g>
<g id="Tekst__x7C__Duits" class="st0">
	<text transform="matrix(1 0 0 1 206.8888 28.8337)" class="st4 st5 st6">Issues</text>
	<text transform="matrix(1 0 0 1 72.3211 28.8336)" class="st4 st5 st6">Issues</text>
	<text transform="matrix(1 0 0 1 78.1819 174.1824)" class="st15 st5 st6">Model</text>
	<text transform="matrix(1 0 0 1 199.9024 174.1824)" class="st15 st5 st6">Model</text>
	<text transform="matrix(1 0 0 1 125.2469 171.3533)" class="st34"><tspan x="0" y="0" class="st22 st5 st28">Datenaustausch,</tspan><tspan x="18.9" y="7.2" class="st22 st5 st28">PMS</tspan></text>
	<path class="st27" d="M52.6,34.6"/>
	<path class="st27" d="M60.6,26.6"/>
	<path class="st27" d="M260.4,34.4"/>
	<g class="st1">
		<rect x="55.7" y="120.3" class="st23" width="61.7" height="12.3"/>
		<text transform="matrix(1 0 0 1 55.6717 124.9039)"><tspan x="0" y="0" class="st22 st5 st28">Autorisierungs-</tspan><tspan x="0" y="7.2" class="st22 st5 st28">Software </tspan></text>
	</g>
	<g class="st1">
		<rect x="179.8" y="120.3" class="st23" width="67.2" height="15"/>
		<text transform="matrix(1 0 0 1 179.838 124.88)"><tspan x="0" y="0" class="st29 st30 st28">BIM Modellprüfungs / </tspan><tspan x="0" y="7.2" class="st29 st30 st28">Validierungswerkzeuge</tspan></text>
	</g>
</g>
<g id="Tekst__x7C__Frans" class="st0">
	<text transform="matrix(1 0 0 1 206.8888 28.8337)" class="st4 st5 st6">Issues</text>
	<text transform="matrix(1 0 0 1 72.3211 28.8336)" class="st4 st5 st6">Issues</text>
	<text transform="matrix(1 0 0 1 78.1819 174.1824)" class="st15 st5 st6">Modèle</text>
	<text transform="matrix(1 0 0 1 197.9024 174.1824)" class="st15 st5 st6">Modèle</text>
	<path class="st27" d="M52.6,34.6"/>
	<path class="st27" d="M60.6,26.6"/>
	<path class="st27" d="M260.4,34.4"/>
	<g class="st1">
		<rect x="55.7" y="120.1" class="st23" width="34" height="12"/>
		<text transform="matrix(1 0 0 1 55.6712 124.6539)"><tspan x="0" y="0" class="st22 st5 st28">Logiciel de </tspan><tspan x="0" y="7.2" class="st22 st5 st28">création</tspan></text>
	</g>
	<g class="st1">
		<rect x="179.1" y="120.1" class="st23" width="70.2" height="15.6"/>
		<text transform="matrix(1 0 0 1 179.088 124.63)"><tspan x="0" y="0" class="st29 st30 st28">Vérificateur de modèle </tspan><tspan x="0" y="7.2" class="st29 st30 st28">BIM / outils de validation</tspan></text>
	</g>
	<g class="st1">
		<rect x="123.6" y="165.7" class="st23" width="52.2" height="16.8"/>
		<text transform="matrix(1 0 0 1 130.7638 170.9973)"><tspan x="0" y="0" class="st22 st5 st6">Partage de </tspan><tspan x="6.4" y="8.4" class="st22 st5 st6">fichiers</tspan></text>
	</g>
</g>
</svg>
