<?xml version="1.0" encoding="utf-8"?>
<!-- Generator: Adobe Illustrator 22.0.1, SVG Export Plug-In . SVG Version: 6.00 Build 0)  -->
<svg version="1.1" id="Layer_1" xmlns="http://www.w3.org/2000/svg" xmlns:xlink="http://www.w3.org/1999/xlink" x="0px" y="0px"
	 viewBox="0 0 260 90" style="enable-background:new 0 0 260 90;" xml:space="preserve">
<style type="text/css">
	.st0{fill:#F1F6E9;}
	.st1{fill:#9FC85E;}
	.st2{fill:#F1F6E9;stroke:#9FC85E;stroke-width:0.75;stroke-miterlimit:10;}
	.st3{fill:#F1F6E9;stroke:#9FC85E;stroke-miterlimit:10;}
	.st4{font-family:'AvenirNext-Medium';}
	.st5{font-size:17.6774px;}
	.st6{fill:none;}
</style>
<g>
	<g>
		<path class="st0" d="M149.1,88.9c-0.2,0-0.3,0-0.5,0l-0.4,0c-0.2,0-0.3,0-0.5,0c-0.2,0-0.3,0-0.5,0H90c-14.9,0-27-12.1-27-27
			C63,51.4,69.6,41,79,36.5l0.4-0.2v-0.4c0-0.3,0-0.6,0-1l0-0.3l0-0.4c0-0.2,0-0.5,0-0.7c0-9.9,8.1-18,18-18c3.5,0,7,1,10,3l0.6,0.4
			l0.4-0.6C115,8.1,127.3,1.5,139.5,1.5c19.8,0,36.2,16.5,36.5,36.7l0,0.5l0.5,0.1C188.2,41,197,51.8,197,63.8
			c0,13.8-11.2,25.1-25.1,25.1L149.1,88.9L149.1,88.9z"/>
		<path class="st1" d="M139.5,2.2c19.5,0,35.6,16.2,35.8,36l0,1.1l1.1,0.2c11.3,2.1,19.9,12.6,19.9,24.3c0,13.5-10.9,24.4-24.4,24.4
			h-22.9c-0.2,0-0.3,0-0.5,0c-0.2,0-0.3,0-0.5,0c-0.2,0-0.3,0-0.5,0c-0.1,0-0.3,0-0.4,0H90c-14.5,0-26.3-11.8-26.3-26.3
			c0-10.2,6.4-20.4,15.6-24.8l0.8-0.4v-0.8c0-0.3,0-0.6,0-0.9l0-0.3l0-0.1l0-0.1l0-0.3c0-0.2,0-0.4,0-0.7c0-9.6,7.8-17.3,17.3-17.3
			c3.4,0,6.7,1,9.6,2.9l1.1,0.7l0.7-1.1C115.4,8.7,127.5,2.2,139.5,2.2 M139.5,0.9c-13,0-25.1,7-31.9,17.1c-3-2-6.5-3.1-10.3-3.1
			c-10.3,0-18.7,8.4-18.7,18.7c0,0.4,0,0.7,0.1,1.1c0,0.4-0.1,0.9-0.1,1.3c-9.3,4.5-16.3,15.1-16.3,26c0,15.2,12.4,27.6,27.6,27.6
			h57.2c0.3,0,0.6,0,0.9,0c0.3,0,0.6,0,1,0h22.9c14.1,0,25.7-11.6,25.7-25.7c0-12.5-9.1-23.4-21-25.6
			C176.4,17.9,159.9,0.9,139.5,0.9L139.5,0.9z"/>
	</g>
	<g>
		<g>
			<path class="st0" d="M149.1,88.9c-0.2,0-0.3,0-0.5,0l-0.4,0c-0.2,0-0.3,0-0.5,0c-0.2,0-0.3,0-0.5,0H90c-14.9,0-27-12.1-27-27
				C63,51.4,69.6,41,79,36.5l0.4-0.2v-0.4c0-0.3,0-0.6,0-1l0-0.3l0-0.4c0-0.2,0-0.5,0-0.7c0-9.9,8.1-18,18-18c3.5,0,7,1,10,3
				l0.6,0.4l0.4-0.6C115,8.1,127.3,1.5,139.5,1.5c19.8,0,36.2,16.5,36.5,36.7l0,0.5l0.5,0.1C188.2,41,197,51.8,197,63.8
				c0,13.8-11.2,25.1-25.1,25.1L149.1,88.9L149.1,88.9z"/>
			<path class="st1" d="M139.5,2.2c19.5,0,35.6,16.2,35.8,36l0,1.1l1.1,0.2c11.3,2.1,19.9,12.6,19.9,24.3
				c0,13.5-10.9,24.4-24.4,24.4h-22.9c-0.2,0-0.3,0-0.5,0c-0.2,0-0.3,0-0.5,0c-0.2,0-0.3,0-0.5,0c-0.1,0-0.3,0-0.4,0H90
				c-14.5,0-26.3-11.8-26.3-26.3c0-10.2,6.4-20.4,15.6-24.8l0.8-0.4v-0.8c0-0.3,0-0.6,0-0.9l0-0.3l0-0.1l0-0.1l0-0.3
				c0-0.2,0-0.4,0-0.7c0-9.6,7.8-17.3,17.3-17.3c3.4,0,6.7,1,9.6,2.9l1.1,0.7l0.7-1.1C115.4,8.7,127.5,2.2,139.5,2.2 M139.5,0.9
				c-13,0-25.1,7-31.9,17.1c-3-2-6.5-3.1-10.3-3.1c-10.3,0-18.7,8.4-18.7,18.7c0,0.4,0,0.7,0.1,1.1c0,0.4-0.1,0.9-0.1,1.3
				c-9.3,4.5-16.3,15.1-16.3,26c0,15.2,12.4,27.6,27.6,27.6h57.2c0.3,0,0.6,0,0.9,0c0.3,0,0.6,0,1,0h22.9
				c14.1,0,25.7-11.6,25.7-25.7c0-12.5-9.1-23.4-21-25.6C176.4,17.9,159.9,0.9,139.5,0.9L139.5,0.9z"/>
		</g>
	</g>
	<path class="st2" d="M165,38.2"/>
	<path class="st2" d="M176.7,38.2"/>
	<g>
		<path class="st3" d="M176,38.8c-3.7-1.1-7.2-0.5-11.7,0.2"/>
	</g>
	<path class="st2" d="M97.3,14.9c10.3,0,18.7,8.4,18.7,18.7"/>
	<path class="st2" d="M78.7,33.5"/>
	<g>
		<path class="st3" d="M79.3,33.5c0-10.3,7.7-18.7,18-18.7c10.3,0,18.7,8.4,18.7,18.7"/>
	</g>
</g>
<text transform="matrix(1 0 0 1 91.9841 78.6373)" class="st1 st4 st5">BIMcollab</text>
<g>
	<path class="st6" d="M97.1-62.3"/>
</g>
</svg>
