<svg xmlns="http://www.w3.org/2000/svg" xmlns:xlink="http://www.w3.org/1999/xlink" width="172.768" height="88.078" viewBox="0 0 172.768 88.078"><defs><path id="a" d="M0 0h172.768v88.078H0z"/></defs><clipPath id="b"><use xlink:href="#a" overflow="visible"/></clipPath><path clip-path="url(#b)" fill="#E84F29" d="M44.04 87.722C19.914 87.722.356 68.164.356 44.038.356 19.913 19.914.355 44.04.355h84.688c24.126 0 43.685 19.558 43.685 43.683 0 24.126-19.559 43.684-43.685 43.684H44.017h.023z"/><path clip-path="url(#b)" fill="none" stroke="#1D1D1B" stroke-width=".711" stroke-linejoin="bevel" d="M44.04 87.722C19.914 87.722.356 68.164.356 44.038.356 19.913 19.914.355 44.04.355h84.688c24.126 0 43.685 19.558 43.685 43.683 0 24.126-19.559 43.684-43.685 43.684H44.017h.023z"/><path clip-path="url(#b)" fill="#FFF" d="M129.504 30.867c7.274 0 13.172 5.897 13.172 13.172s-5.897 13.171-13.172 13.171H43.263c-7.275 0-13.172-5.896-13.172-13.171s5.897-13.172 13.172-13.172h86.241z"/><path clip-path="url(#b)" fill="none" stroke="#000" stroke-width=".711" stroke-linejoin="bevel" d="M129.504 30.867c7.274 0 13.172 5.897 13.172 13.172s-5.897 13.171-13.172 13.171H43.263c-7.275 0-13.172-5.896-13.172-13.171s5.897-13.172 13.172-13.172h86.241z"/><path clip-path="url(#b)" fill="#1D1D1B" d="M41.623 37.111l.026 13.631h6.583s3.028.202 3.02-3.692c-.005-3.521-2.326-3.521-2.349-3.535-.008-.005.014-.001 0 0 .067-.001 1.608-.313 1.574-3.279-.029-2.792-3.383-3.096-2.942-3.096-1.859-.001-5.912-.029-5.912-.029"/><path clip-path="url(#b)" fill="#FFF" d="M44.877 40.133v2.116h1.704s.801.058.801-.956c0-1.162-.782-1.162-.777-1.162l-1.728.002m.019 5.004h1.941s1.034 0 1.034 1.291c.001 1.407-1.043 1.42-1.058 1.42H44.9l-.004-2.711z"/><path clip-path="url(#b)" fill="#1D1D1B" d="M58.297 50.838a6.774 6.774 0 0 0 0-13.546 6.773 6.773 0 0 0 0 13.546"/><path clip-path="url(#b)" fill="#FFF" d="M58.412 47.521a3.468 3.468 0 1 0 0-6.937 3.468 3.468 0 0 0 0 6.937"/><path clip-path="url(#b)" fill="#1D1D1B" d="M66.29 37.134l3.403.005v9.085s-.128 1.446 1.755 1.445c1.747 0 1.647-1.653 1.651-1.342-.004-.31-.004-9.193-.004-9.193l3.412.005v9.705s.23 3.919-5.11 3.897c-5.096-.02-5.111-3.924-5.111-3.794l.004-9.813m10.634 0h3.943l2.041 4.085 2.077-4.097h3.786l-4.099 7.928v5.732h-3.459v-5.628z"/><path clip-path="url(#b)" fill="#1D1D1B" d="M92.75 43.422h7.538s.384 7.344-6.506 7.333c-4.479-.01-6.61-3.096-6.609-6.712.003-3.8 2.731-6.815 6.402-6.815 4.682 0 6.505 4.027 6.505 4.801l-3.56.051s-.155-1.616-2.996-1.653c-2.133-.028-3.42 1.956-3.355 3.564.079 1.977 1.313 3.71 3.354 3.755 3.063.066 2.801-1.762 2.79-1.641.017-.184-3.563-.05-3.563-.05v-2.633zm8.766-6.3l3.198.012v9.363c0-.216-.044 1.604 1.731 1.604 1.954 0 1.676-1.759 1.676-1.657l.012-9.31h3.064l-.029 9.569c0 .033.104 4.109-4.75 4.132-4.592.021-4.902-3.844-4.906-3.977-.011-.412.004-9.736.004-9.736m19.661.012h-8.858v13.665l8.848.034.01-2.909h-5.316V45.57h5.196v-2.93h-5.196v-2.332h5.306zm7.036 4.053h3.306s-.293-4.053-4.744-4.053c-3.32 0-4.609 2.176-4.603 4.157.013 3.475 3.259 3.709 3.82 3.977.879.412 2.221.566 2.221 1.65 0 .827-.516 1.343-1.292 1.343-.773 0-1.495-.259-1.495-1.445h-3.201s-.547 4.04 4.544 4.025c3.854-.009 4.68-2.472 4.697-3.869.035-2.788-2.62-3.541-3.563-3.875-.877-.308-2.45-.901-2.478-1.962-.028-1.084.409-1.511 1.29-1.495 1.713.026 1.498 1.547 1.498 1.547"/></svg>