<?xml version="1.0" encoding="utf-8"?>
<!-- Generator: Adobe Illustrator 16.0.0, SVG Export Plug-In . SVG Version: 6.00 Build 0)  -->
<!DOCTYPE svg PUBLIC "-//W3C//DTD SVG 1.1//EN" "http://www.w3.org/Graphics/SVG/1.1/DTD/svg11.dtd">
<svg version="1.1" id="Layer_1" xmlns="http://www.w3.org/2000/svg" xmlns:xlink="http://www.w3.org/1999/xlink" x="0px" y="0px"
	 width="278px" height="190.25px" viewBox="0 0 278 190.25" enable-background="new 0 0 278 190.25" xml:space="preserve">
<g>
	<path fill="none" stroke="#E34E2A" stroke-miterlimit="10" d="M118.5,176.814h-105c-3.85,0-7-3.149-7-7V147.27c0-3.85,3.15-7,7-7
		h54"/>
</g>
<g>
	<path fill="none" stroke="#E34E2A" stroke-miterlimit="10" d="M237.936,140.271h28.647c3.851,0,7,3.149,7,7v22.545
		c0,3.85-3.149,7-7,7H163"/>
</g>
<line fill="none" stroke="#706F6F" stroke-width="2" stroke-linecap="round" stroke-miterlimit="10" x1="55.813" y1="107.089" x2="55.813" y2="136.089"/>
<circle fill="none" stroke="#706F6F" stroke-miterlimit="10" cx="80.82" cy="105.229" r="13.5"/>
<path fill="#F6F6F6" stroke="#706F6F" stroke-miterlimit="10" d="M114.939,22.205c0-9.351-7.648-17-17-17h-34.24
	c-9.35,0-17,7.649-17,17v52.694c0,0.023,0.003,0.047,0.003,0.07c0,0.047-0.003,0.094-0.003,0.141
	c0,18.844,15.277,34.119,34.121,34.119c18.844,0,34.119-15.274,34.119-34.119c0-0.045-0.004-0.09-0.004-0.135
	c0-0.025,0.004-0.051,0.004-0.076V22.205z"/>
<g>
	<path fill="none" stroke="#706F6F" stroke-miterlimit="10" d="M38.153,124.755c0-11.55,9.45-21,21-21h43.333c11.55,0,21,9.45,21,21
		v20.334H38.153V124.755z"/>
	
		<line fill="none" stroke="#706F6F" stroke-width="2" stroke-linecap="round" stroke-miterlimit="10" x1="105.82" y1="116.089" x2="105.82" y2="145.089"/>
	<g>
		<path fill="#FFFFFF" d="M64.432,76.315c-4.965,0-9.004-4.039-9.004-9.004V34.104c0-7.004,0.354-8.377,4.42-8.377
			c0.388,0,0.812,0.008,1.278,0.018c0.558,0.011,1.175,0.023,1.858,0.023h0.636L62.858,28.9l8.658-4.011l0.768,3.263l7.463-3.08
			l0.783,2.213l8.48-2.249l0.283,2.128l7.851-2.064h0.064c4.78,0,8.25,3.814,8.25,9.068l0.754,33.131
			c0,5.801-4.98,8.392-9.916,8.392h-0.535l0.036-0.534c0.004-0.063,0.399-6.324-2.313-8.812c-0.025-0.002-0.517-0.176-3.322-0.176
			c-7.177,0-22.69,1.099-24.298,1.214c-1.764,1.307-1.282,6.441-0.94,8.342l0.106,0.589L64.432,76.315L64.432,76.315z"/>
		<g>
			<path fill="#706F6F" d="M97.209,25.601c4.697,0,7.75,3.871,7.75,8.568l0.754,33.143c0,5.5-4.719,7.881-9.416,7.881
				c0,0,0.451-6.531-2.475-9.215c-0.24-0.22-1.625-0.307-3.66-0.307c-7.642,0-24.469,1.225-24.469,1.225
				c-2.576,1.631-1.262,8.92-1.262,8.92c-4.697,0-8.504-3.809-8.504-8.504V34.104c0-7.176,0.413-7.877,3.92-7.877
				c0.851,0,1.883,0.041,3.136,0.041l-0.857,3.521l9.043-4.189l0.762,3.238l7.52-3.104l0.762,2.151l8.377-2.222l0.283,2.127
				L97.209,25.601 M71.862,24.178l-1.113,0.516l-7.16,3.317l0.367-1.505l0.301-1.236h-1.272c-0.68,0-1.294-0.012-1.849-0.023
				c-0.469-0.009-0.897-0.018-1.288-0.018c-4.696,0-4.92,2.133-4.92,8.877v33.207c0,5.24,4.264,9.504,9.504,9.504h1.195
				l-0.211-1.177c-0.473-2.634-0.562-6.658,0.642-7.766c2.269-0.162,17.136-1.202,24.104-1.202c2.14,0,2.866,0.1,3.094,0.149
				c2.005,1.997,2.157,6.651,2.043,8.304l-0.074,1.069h1.071c5.185,0,10.416-2.746,10.416-8.881l-0.754-33.166
				c0-5.521-3.679-9.545-8.75-9.545H97.08l-0.125,0.033l-7.24,1.903l-0.134-1.003l-0.15-1.126L88.333,24.7l-7.486,1.985
				l-0.454-1.282l-0.352-0.992l-0.973,0.401l-6.434,2.655l-0.493-2.095L71.862,24.178L71.862,24.178z"/>
		</g>
	</g>
	<circle fill="#706F6F" cx="72.471" cy="58.031" r="2.215"/>
	<circle fill="#706F6F" cx="84.941" cy="57.594" r="2.215"/>
	<path fill="#FFFFFF" stroke="#706F6F" stroke-miterlimit="10" d="M87.512,70.255c0,4.154-3.367,7.521-7.521,7.521
		c-4.152,0-7.52-3.366-7.52-7.521H87.512z"/>
</g>
<g>
	<path fill="none" stroke="#706F6F" stroke-miterlimit="10" d="M164.296,125.579c0-11.082,9.067-20.149,20.149-20.149h41.576
		c11.082,0,20.149,9.067,20.149,20.149v19.51h-81.876L164.296,125.579L164.296,125.579z"/>
	
		<line fill="none" stroke="#706F6F" stroke-width="2" stroke-linecap="round" stroke-miterlimit="10" x1="229.223" y1="117.264" x2="229.223" y2="144.579"/>
	
		<line fill="none" stroke="#706F6F" stroke-width="2" stroke-linecap="round" stroke-miterlimit="10" x1="181.24" y1="117.264" x2="181.24" y2="144.579"/>
	<path fill="#FFFFFF" stroke="#706F6F" stroke-miterlimit="10" d="M228.329,35.892h-40.769c-2.528,0-4.578,2.049-4.578,4.577v56.758
		c0,2.526,2.05,4.576,4.578,4.576h11.51c-0.002,0.072-0.01,0.143-0.01,0.217c0,4.067,3.299,7.365,7.365,7.365
		c4.068,0,7.367-3.298,7.367-7.365c0-0.074-0.009-0.145-0.011-0.217h14.546c2.527,0,4.578-2.05,4.578-4.576V40.469
		C232.907,37.94,230.857,35.892,228.329,35.892z"/>
	<path fill="#F6F6F6" stroke="#706F6F" stroke-miterlimit="10" d="M244.182,57.389c-0.883-23.292-16.668-42.204-37.229-42.204
		s-36.445,17.067-38.145,40.313c-2.029,27.772-1.549,74.286,36.562,61.012c7.274-2.533,4.745-10.587-12.149-38.888
		c-4.834-8.099-1.83-21.972-1.83-21.972s12.33,1.004,20.599-1.373c7.87-2.262,20.168-11.079,20.168-11.079l0.696,36.27
		c0.002,7.695-6.522,19.667-20.561,21.956c0,0,0.562,3.314,0.609,4.577c0,0,15.183-0.483,19.377-0.306
		C233.473,105.746,245.555,93.642,244.182,57.389z"/>
	<path fill="none" stroke="#706F6F" stroke-width="2" stroke-linecap="round" stroke-miterlimit="10" d="M207.716,80.062
		c0,0,4.959,7.019,9.917-1.221"/>
	<path fill="none" stroke="#706F6F" stroke-width="2" stroke-linecap="round" stroke-miterlimit="10" d="M212.578,72.93
		c0,0,0.156,1.818,0.459,1.24c0.954-1.831,4.463,0.591-1.016,3.176"/>
	<circle fill="#706F6F" cx="205.234" cy="68.737" r="2.711"/>
	<circle fill="#706F6F" cx="217.633" cy="68.737" r="2.711"/>
</g>
<g>
	<path fill="none" stroke="#9DC75F" stroke-linecap="round" stroke-miterlimit="10" d="M230.996,154.861"/>
</g>
<g>
	<path fill="#F6B4AA" stroke="#E34E2A" stroke-miterlimit="10" d="M265.671,135.006c0,1.139-0.931,2.068-2.067,2.068h-77.506
		c-1.14,0-2.068-0.93-2.068-2.068V89.444c0-1.137,0.929-2.067,2.068-2.067h77.506c1.138,0,2.067,0.93,2.067,2.067V135.006z"/>
	<path fill="#F6B4AA" stroke="#E34E2A" stroke-miterlimit="10" d="M265.671,137.074h-81.644v-47.63c0-1.137,0.93-2.067,2.068-2.067
		h77.508c1.137,0,2.066,0.93,2.066,2.067L265.671,137.074L265.671,137.074z"/>
</g>
<g>
	<path fill="#F6B4AA" stroke="#E34E2A" stroke-miterlimit="10" d="M266.718,141.398c0,1.139-0.807,2.067-1.79,2.067h-80.154
		c-0.984,0-1.789-0.93-1.789-2.067v-2.258c0-1.137,0.805-2.066,1.789-2.066h80.154c0.983,0,1.79,0.931,1.79,2.066V141.398z"/>
	<path fill="#F6B4AA" stroke="#E34E2A" stroke-miterlimit="10" d="M266.718,141.398c0,1.139-0.807,2.067-1.79,2.067h-80.154
		c-0.984,0-1.789-0.93-1.789-2.067v-4.324h83.733V141.398z"/>
</g>
<path fill="#F6B4AA" stroke="#E34E2A" stroke-miterlimit="10" d="M219.688,113.396"/>
<path fill="#F6B4AA" stroke="#E34E2A" stroke-miterlimit="10" d="M220.238,113.396"/>
<circle fill="#F2D4D1" stroke="#E34E2A" stroke-miterlimit="10" cx="224.611" cy="112.226" r="6.347"/>
<g>
	<path fill="#F6B4AA" stroke="#E34E2A" stroke-miterlimit="10" d="M96.634,135.006c0,1.139-0.931,2.068-2.067,2.068H17.059
		c-1.139,0-2.068-0.93-2.068-2.068V89.444c0-1.137,0.929-2.067,2.068-2.067h77.507c1.137,0,2.067,0.93,2.067,2.067L96.634,135.006
		L96.634,135.006z"/>
	<path fill="#F6B4AA" stroke="#E34E2A" stroke-miterlimit="10" d="M96.634,137.074H14.991v-47.63c0-1.137,0.929-2.067,2.068-2.067
		h77.507c1.137,0,2.067,0.93,2.067,2.067L96.634,137.074L96.634,137.074z"/>
</g>
<g>
	<path fill="#F6B4AA" stroke="#E34E2A" stroke-miterlimit="10" d="M97.681,141.398c0,1.139-0.807,2.067-1.79,2.067H15.736
		c-0.985,0-1.79-0.93-1.79-2.067v-2.258c0-1.137,0.805-2.066,1.79-2.066H95.89c0.983,0,1.79,0.931,1.79,2.066L97.681,141.398
		L97.681,141.398z"/>
	<path fill="#F6B4AA" stroke="#E34E2A" stroke-miterlimit="10" d="M97.681,141.398c0,1.139-0.807,2.067-1.79,2.067H15.736
		c-0.985,0-1.79-0.93-1.79-2.067v-4.324H97.68L97.681,141.398L97.681,141.398z"/>
</g>
<path fill="#F6B4AA" stroke="#E34E2A" stroke-miterlimit="10" d="M50.65,113.396"/>
<path fill="#F6B4AA" stroke="#E34E2A" stroke-miterlimit="10" d="M51.201,113.396"/>
<circle fill="#F2D4D1" stroke="#E34E2A" stroke-miterlimit="10" cx="55.573" cy="112.226" r="6.347"/>
<path fill="#E34E2A" d="M139.404,172.102c0,0.994-0.807,1.799-1.8,1.799H127.8c-0.994,0-1.8-0.805-1.8-1.799l0,0
	c0-0.994,0.806-1.801,1.8-1.801h9.804C138.597,170.301,139.404,171.105,139.404,172.102L139.404,172.102z"/>
<path fill="#E34E2A" d="M139.404,181.359c0,0.994-0.807,1.799-1.8,1.799H127.8c-0.994,0-1.8-0.805-1.8-1.799l0,0
	c0-0.994,0.806-1.801,1.8-1.801h9.804C138.597,179.559,139.404,180.365,139.404,181.359L139.404,181.359z"/>
<path fill="#F6B4AA" stroke="#E34E2A" stroke-miterlimit="10" d="M119.998,166.7L119.998,166.7c-0.019,0.001-0.037,0-0.055,0
	c-5.587,0-10.115,4.528-10.115,10.114c0,5.588,4.528,10.115,10.115,10.115c0.018,0,0.036,0,0.055,0l0,0h10.061V166.7H119.998z"/>
<path fill="#E34E2A" d="M126,181.359c-0.679,0-1.228-0.551-1.228-1.229v-6.687c0-0.678,0.549-1.227,1.228-1.227l0,0
	c0.678,0,1.228,0.549,1.228,1.227v6.687C127.228,180.809,126.678,181.359,126,181.359L126,181.359z"/>
<path fill="#F6B4AA" stroke="#E34E2A" stroke-miterlimit="10" d="M162.107,186.902L162.107,186.902c0.019,0,0.037,0,0.055,0
	c5.587,0,10.115-4.527,10.115-10.114s-4.528-10.115-10.115-10.115c-0.018,0-0.036,0.001-0.055,0.001v-0.001h-10.062v20.229H162.107
	L162.107,186.902z"/>
<path fill="#E34E2A" d="M156.104,172.244c0.68,0,1.229,0.551,1.229,1.229v6.687c0,0.678-0.549,1.228-1.229,1.228l0,0
	c-0.678,0-1.228-0.55-1.228-1.228v-6.687C154.876,172.795,155.426,172.244,156.104,172.244L156.104,172.244z"/>
<g>
	<text transform="matrix(1 0 0 1 188.459 96.8154)" fill="#E34E2A" font-family="'AvenirNext-Medium'" font-size="7">Model Checker</text>
	<text transform="matrix(1 0 0 1 188.459 105.2158)" fill="#E34E2A" font-family="'AvenirNext-Medium'" font-size="7">Software</text>
</g>
<text transform="matrix(1 0 0 1 18.5938 96.8164)" fill="#E34E2A" font-family="'AvenirNext-Medium'" font-size="7">Authoring</text>
<text transform="matrix(1 0 0 1 18.5938 105.2158)" fill="#E34E2A" font-family="'AvenirNext-Medium'" font-size="7">software</text>
<line fill="none" stroke="#706F6F" stroke-width="3" stroke-linecap="round" stroke-miterlimit="10" x1="11.083" y1="145.5" x2="268.833" y2="145.5"/>
</svg>
