<?xml version="1.0" encoding="utf-8"?>
<!-- Generator: Adobe Illustrator 16.0.0, SVG Export Plug-In . SVG Version: 6.00 Build 0)  -->
<!DOCTYPE svg PUBLIC "-//W3C//DTD SVG 1.1//EN" "http://www.w3.org/Graphics/SVG/1.1/DTD/svg11.dtd">
<svg version="1.1" id="Layer_1" xmlns="http://www.w3.org/2000/svg" xmlns:xlink="http://www.w3.org/1999/xlink" x="0px" y="0px"
	 width="58px" height="58px" viewBox="0 0 58 58" enable-background="new 0 0 58 58" xml:space="preserve">
<g id="icon-message" display="none">
	<g display="inline">
		<path fill="#FFFFFF" d="M7.646,40.473c-1.654,0-3-1.347-3-3V13.034c0-1.654,1.346-3,3-3h38.312c1.653,0,3,1.346,3,3v24.438
			c0,1.653-1.347,3-3,3H7.646z"/>
		<path fill="#4A4949" d="M45.958,11.034c1.103,0,2,0.897,2,2v24.438c0,1.103-0.897,2-2,2H7.646c-1.103,0-2-0.897-2-2V13.034
			c0-1.103,0.897-2,2-2H45.958 M45.958,9.034H7.646c-2.2,0-4,1.8-4,4v24.438c0,2.199,1.8,4,4,4h38.312c2.2,0,4-1.801,4-4V13.034
			C49.958,10.834,48.158,9.034,45.958,9.034L45.958,9.034z"/>
	</g>
	<g display="inline">
		<path fill="#FFFFFF" d="M44.988,47.965c-5.687,0-10.312-4.626-10.312-10.312c0-5.686,4.626-10.312,10.312-10.312
			c5.687,0,10.312,4.626,10.312,10.312C55.301,43.338,50.676,47.965,44.988,47.965z"/>
		<path fill="#4A4949" d="M44.988,28.34c5.136,0,9.312,4.178,9.312,9.312c0,5.134-4.178,9.312-9.312,9.312
			c-5.133,0-9.312-4.178-9.312-9.312C35.677,32.518,39.854,28.34,44.988,28.34 M44.988,26.34c-6.247,0-11.312,5.064-11.312,11.312
			s5.064,11.312,11.312,11.312c6.248,0,11.313-5.063,11.313-11.312S51.236,26.34,44.988,26.34L44.988,26.34z"/>
	</g>
	<g id="WTmihk.tif" display="inline">
		
			<image overflow="visible" enable-background="new    " width="243" height="193" id="Layer_0_1_" xlink:href="910D0C538A490026.png"  transform="matrix(0.2379 0 0 0.2391 64.25 -2.6348)">
		</image>
	</g>
	
		<polyline display="inline" fill="none" stroke="#4A4949" stroke-width="2" stroke-linecap="round" stroke-linejoin="round" stroke-miterlimit="10" points="
		10.958,17.597 26.802,25.784 42.646,17.597 	"/>
	<g display="inline">
		<path fill="#4A4949" d="M44.988,31.825c1.115,0,2.021,0.907,2.021,2.021c0,1.114-0.906,2.021-2.021,2.021
			c-1.113,0-2.021-0.907-2.021-2.021C42.968,32.732,43.875,31.825,44.988,31.825 M44.988,30.314c-1.949,0-3.53,1.582-3.53,3.531
			c0,1.95,1.581,3.531,3.53,3.531c1.951,0,3.531-1.581,3.531-3.531C48.52,31.896,46.939,30.314,44.988,30.314L44.988,30.314z"/>
	</g>
	<g display="inline">
		<path fill="#4A4949" d="M45.052,39.162c2.32,0,4.358,1.244,4.396,2.673c-0.206,0.29-1.55,1.002-4.458,1.002
			c-2.775,0-4.127-0.726-4.333-1.009C40.699,40.402,42.734,39.162,45.052,39.162 M45.052,37.652c-3.263,0-5.905,1.891-5.905,4.222
			c0,1.535,2.58,2.474,5.844,2.474c3.263,0,5.969-0.875,5.969-2.474C50.958,39.543,48.314,37.652,45.052,37.652L45.052,37.652z"/>
	</g>
</g>
<g id="icon-collaboration" display="none">
	<g id="_x39_7HSMp.tif" display="inline">
		
			<image overflow="visible" enable-background="new    " width="361" height="328" id="Layer_0_2_" xlink:href="910D0C538A49002A.png"  transform="matrix(0.1784 0 0 0.1766 71.583 -1.1787)">
		</image>
	</g>
	<g display="inline">
		<path fill="none" stroke="#4A4949" stroke-width="2" stroke-linecap="round" stroke-linejoin="round" stroke-miterlimit="10" d="
			M8.89,29.465c0-0.268,0.005-0.533,0.015-0.799c0.35-9.165,6.691-16.795,15.218-19.084"/>
		<path fill="none" stroke="#4A4949" stroke-width="2" stroke-linecap="round" stroke-linejoin="round" stroke-miterlimit="10" d="
			M9.642,34.998"/>
		<path fill="none" stroke="#4A4949" stroke-width="2" stroke-linecap="round" stroke-linejoin="round" stroke-miterlimit="10" d="
			M39.105,47.664c-2.873,1.523-6.149,2.387-9.628,2.387c-5.735,0-10.921-2.344-14.653-6.125"/>
		<path fill="none" stroke="#4A4949" stroke-width="2" stroke-linecap="round" stroke-linejoin="round" stroke-miterlimit="10" d="
			M44.672,43.354"/>
		<path fill="none" stroke="#4A4949" stroke-width="2" stroke-linecap="round" stroke-linejoin="round" stroke-miterlimit="10" d="
			M40.727,12.22c5.623,3.676,9.338,10.026,9.338,17.245c0,1.744-0.217,3.438-0.625,5.055"/>
		<path fill="none" stroke="#4A4949" stroke-width="2" stroke-linecap="round" stroke-linejoin="round" stroke-miterlimit="10" d="
			M35.145,9.668"/>
	</g>
	<g display="inline">
		<path fill="#4A4949" d="M29.604,4.34c2.379,0,4.312,1.935,4.312,4.312c0,2.378-1.936,4.312-4.312,4.312
			c-2.376,0-4.312-1.935-4.312-4.312C25.293,6.274,27.227,4.34,29.604,4.34 M29.604,2.34c-3.485,0-6.312,2.826-6.312,6.312
			c0,3.487,2.826,6.312,6.312,6.312c3.487,0,6.312-2.826,6.312-6.312C35.917,5.166,33.092,2.34,29.604,2.34L29.604,2.34z"/>
	</g>
	<g display="inline">
		<path fill="#4A4949" d="M47.521,35.34c2.377,0,4.312,1.936,4.312,4.312c0,2.378-1.935,4.312-4.312,4.312s-4.312-1.935-4.312-4.312
			C43.21,37.273,45.145,35.34,47.521,35.34 M47.521,33.34c-3.485,0-6.312,2.825-6.312,6.312c0,3.486,2.826,6.312,6.312,6.312
			s6.312-2.825,6.312-6.312C53.834,36.165,51.009,33.34,47.521,33.34L47.521,33.34z"/>
	</g>
	<g display="inline">
		<path fill="#4A4949" d="M11.771,35.34c2.378,0,4.312,1.936,4.312,4.312c0,2.378-1.935,4.312-4.312,4.312s-4.312-1.935-4.312-4.312
			C7.459,37.273,9.394,35.34,11.771,35.34 M11.771,33.34c-3.485,0-6.312,2.825-6.312,6.312c0,3.486,2.826,6.312,6.312,6.312
			c3.487,0,6.312-2.825,6.312-6.312C18.083,36.165,15.258,33.34,11.771,33.34L11.771,33.34z"/>
	</g>
</g>
<g id="Layer_3" display="none">
	<g id="_x34_hx4so.tif" display="inline">
		
			<image overflow="visible" enable-background="new    " width="105" height="100" id="Layer_0_3_" xlink:href="910D0C538A49002D.png"  transform="matrix(0.5162 0 0 0.516 90.3828 3.2031)">
		</image>
	</g>
	<g display="inline">
		<path fill="#4A4949" d="M28.999,10.188c10.373,0,18.812,8.438,18.812,18.811c0,10.374-8.438,18.813-18.812,18.813
			c-10.372,0-18.81-8.439-18.81-18.813C10.189,18.626,18.627,10.188,28.999,10.188 M28.999,8.188
			c-11.491,0-20.81,9.316-20.81,20.811c0,11.497,9.319,20.813,20.81,20.813c11.496,0,20.812-9.316,20.812-20.813
			C49.812,17.504,40.495,8.188,28.999,8.188L28.999,8.188z"/>
	</g>
	
		<line display="inline" fill="none" stroke="#4A4949" stroke-width="1.5" stroke-linecap="round" stroke-linejoin="round" stroke-miterlimit="10" x1="29.395" y1="17.834" x2="29.395" y2="30.501"/>
	
		<line display="inline" fill="none" stroke="#4A4949" stroke-width="1.5" stroke-linecap="round" stroke-linejoin="round" stroke-miterlimit="10" x1="21.478" y1="35.751" x2="29.395" y2="30.501"/>
	<g id="vVnGzG.tif" display="inline">
		
			<image overflow="visible" enable-background="new    " width="34" height="46" id="Layer_0_4_" xlink:href="910D0C538A49002E.png"  transform="matrix(1 0 0 1 -47 6)">
		</image>
	</g>
</g>
<g id="Layer_4" display="none">
	<g id="ZLKkZA.tif" display="inline">
		
			<image overflow="visible" enable-background="new    " width="35" height="46" id="Layer_0_5_" xlink:href="910D0C538A49002C.png"  transform="matrix(0.9714 0 0 1 -43.75 6)">
		</image>
	</g>
	<g display="inline">
		<path fill="none" stroke="#4A4949" stroke-width="2" stroke-linejoin="round" stroke-miterlimit="10" d="M36.613,5.844h5.906
			c2.201,0,4,1.8,4,4v38.312c0,2.199-1.799,4-4,4H18.083c-2.2,0-4-1.801-4-4V9.844c0-2.2,1.8-4,4-4h4.843"/>
	</g>
	<g display="inline">
		<path fill="#4A4949" d="M34.613,4.849c0.541,0,1,0.458,1,1v1.906c0,0.542-0.459,1-1,1h-9.688c-0.542,0-1-0.458-1-1V5.849
			c0-0.542,0.458-1,1-1H34.613 M34.613,2.849h-9.688c-1.65,0-3,1.35-3,3v1.906c0,1.65,1.35,3,3,3h9.688c1.65,0,3-1.35,3-3V5.849
			C37.613,4.199,36.264,2.849,34.613,2.849L34.613,2.849z"/>
	</g>
	
		<polyline display="inline" fill="none" stroke="#4A4949" stroke-width="1.5" stroke-linecap="round" stroke-linejoin="round" stroke-miterlimit="10" points="
		18.309,26.068 19.869,28.732 21.889,23.536 	"/>
	
		<polyline display="inline" fill="none" stroke="#4A4949" stroke-width="1.5" stroke-linecap="round" stroke-linejoin="round" stroke-miterlimit="10" points="
		18.309,35.085 19.869,37.749 21.889,32.553 	"/>
	
		<polyline display="inline" fill="none" stroke="#4A4949" stroke-width="1.5" stroke-linecap="round" stroke-linejoin="round" stroke-miterlimit="10" points="
		18.309,44.102 19.869,46.766 21.889,41.57 	"/>
	
		<polyline display="inline" fill="none" stroke="#4A4949" stroke-width="1.5" stroke-linecap="round" stroke-linejoin="round" stroke-miterlimit="10" points="
		18.309,17.051 19.869,19.715 21.889,14.519 	"/>
	
		<line display="inline" fill="none" stroke="#4A4949" stroke-width="1.5" stroke-linecap="round" stroke-linejoin="round" stroke-miterlimit="10" x1="24.47" y1="17.353" x2="41.936" y2="17.353"/>
	
		<line display="inline" fill="none" stroke="#4A4949" stroke-width="1.5" stroke-linecap="round" stroke-linejoin="round" stroke-miterlimit="10" x1="24.251" y1="26.292" x2="41.717" y2="26.292"/>
	
		<line display="inline" fill="none" stroke="#4A4949" stroke-width="1.5" stroke-linecap="round" stroke-linejoin="round" stroke-miterlimit="10" x1="24.034" y1="35.229" x2="41.499" y2="35.229"/>
	
		<line display="inline" fill="none" stroke="#4A4949" stroke-width="1.5" stroke-linecap="round" stroke-linejoin="round" stroke-miterlimit="10" x1="23.64" y1="44.168" x2="41.105" y2="44.168"/>
</g>
<g id="Layer_5">
	<g>
		<g>
			<g>
				<path fill="#FFFFFF" d="M6.287,21.27c-2.877,0-5.219-2.341-5.219-5.219c0-2.877,2.341-5.218,5.219-5.218
					s5.219,2.341,5.219,5.218C11.504,18.929,9.164,21.27,6.287,21.27z"/>
				<path fill="#4A4949" d="M6.287,11.583c2.464,0,4.469,2.004,4.469,4.468S8.75,20.52,6.287,20.52s-4.469-2.005-4.469-4.469
					S3.823,11.583,6.287,11.583 M6.287,10.083c-3.297,0-5.969,2.671-5.969,5.968S2.99,22.02,6.287,22.02s5.969-2.672,5.969-5.969
					S9.583,10.083,6.287,10.083L6.287,10.083z"/>
			</g>
			
				<polyline fill="none" stroke="#4A4949" stroke-width="1.5" stroke-linecap="round" stroke-linejoin="round" stroke-miterlimit="10" points="
				4.335,15.979 6.037,18.882 8.236,13.221 			"/>
		</g>
		<g>
			<g>
				<path fill="#FFFFFF" d="M23,38.937c-2.877,0-5.218-2.342-5.218-5.219S20.123,28.5,23,28.5c2.877,0,5.218,2.341,5.218,5.218
					S25.877,38.937,23,38.937z"/>
				<path fill="#4A4949" d="M23,29.249c2.463,0,4.468,2.004,4.468,4.468S25.463,38.186,23,38.186c-2.464,0-4.468-2.005-4.468-4.469
					C18.532,31.254,20.536,29.249,23,29.249 M23,27.749c-3.297,0-5.968,2.671-5.968,5.968c0,3.296,2.671,5.969,5.968,5.969
					c3.295,0,5.968-2.673,5.968-5.969S26.295,27.749,23,27.749L23,27.749z"/>
			</g>
			
				<polyline fill="none" stroke="#4A4949" stroke-width="1.5" stroke-linecap="round" stroke-linejoin="round" stroke-miterlimit="10" points="
				21.05,33.646 22.749,36.547 24.949,30.888 			"/>
		</g>
		<g>
			<g>
				<path fill="#FFFFFF" d="M39.746,56.604c-2.877,0-5.219-2.342-5.219-5.22c0-2.877,2.342-5.218,5.219-5.218
					s5.219,2.341,5.219,5.218C44.965,54.262,42.623,56.604,39.746,56.604z"/>
				<path fill="#4A4949" d="M39.746,46.916c2.465,0,4.469,2.004,4.469,4.468c0,2.465-2.004,4.47-4.469,4.47
					c-2.463,0-4.469-2.005-4.469-4.47C35.279,48.92,37.283,46.916,39.746,46.916 M39.746,45.416c-3.297,0-5.969,2.672-5.969,5.968
					c0,3.297,2.672,5.97,5.969,5.97s5.969-2.673,5.969-5.97C45.715,48.088,43.043,45.416,39.746,45.416L39.746,45.416z"/>
			</g>
			
				<polyline fill="none" stroke="#4A4949" stroke-width="1.5" stroke-linecap="round" stroke-linejoin="round" stroke-miterlimit="10" points="
				37.795,51.312 39.496,54.214 41.697,48.554 			"/>
		</g>
		<g>
			<path fill="none" stroke="#4A4949" stroke-width="2" stroke-linejoin="round" stroke-miterlimit="10" d="M5.185,16.051"/>
		</g>
		<g>
			<path fill="none" stroke="#4A4949" stroke-width="2" stroke-linejoin="round" stroke-miterlimit="10" d="M27.947,33.718
				c0,0,0.24,0,0.534,0s2.334,0,4.534,0h8.133c2.2,0,4-1.8,4-4v-9.667c0-2.2-1.8-4-4-4H11.562"/>
		</g>
		<g>
			<path fill="none" stroke="#4A4949" stroke-width="2" stroke-linejoin="round" stroke-miterlimit="10" d="M34.527,51.385H7.018
				c-2.2,0-4-1.8-4-4v-9.667c0-2.2,1.8-4,4-4h10.853"/>
		</g>
	</g>
</g>
</svg>
