<?xml version="1.0" encoding="utf-8"?>
<!-- Generator: Adobe Illustrator 16.0.0, SVG Export Plug-In . SVG Version: 6.00 Build 0)  -->
<!DOCTYPE svg PUBLIC "-//W3C//DTD SVG 1.1//EN" "http://www.w3.org/Graphics/SVG/1.1/DTD/svg11.dtd">
<svg version="1.1" id="Layer_1" xmlns="http://www.w3.org/2000/svg" xmlns:xlink="http://www.w3.org/1999/xlink" x="0px" y="0px"
	 width="58px" height="58px" viewBox="0 0 58 58" enable-background="new 0 0 58 58" xml:space="preserve">
<g id="icon-message" display="none">
	<g display="inline">
		<path fill="#FFFFFF" d="M7.646,40.473c-1.654,0-3-1.347-3-3V13.034c0-1.654,1.346-3,3-3h38.312c1.653,0,3,1.346,3,3v24.438
			c0,1.653-1.347,3-3,3H7.646z"/>
		<path fill="#4A4949" d="M45.958,11.034c1.103,0,2,0.897,2,2v24.438c0,1.103-0.897,2-2,2H7.646c-1.103,0-2-0.897-2-2V13.034
			c0-1.103,0.897-2,2-2H45.958 M45.958,9.034H7.646c-2.2,0-4,1.8-4,4v24.438c0,2.199,1.8,4,4,4h38.312c2.2,0,4-1.801,4-4V13.034
			C49.958,10.834,48.158,9.034,45.958,9.034L45.958,9.034z"/>
	</g>
	<g display="inline">
		<path fill="#FFFFFF" d="M44.988,47.965c-5.687,0-10.312-4.626-10.312-10.312c0-5.686,4.626-10.312,10.312-10.312
			c5.687,0,10.312,4.626,10.312,10.312C55.301,43.338,50.676,47.965,44.988,47.965z"/>
		<path fill="#4A4949" d="M44.988,28.34c5.136,0,9.312,4.178,9.312,9.312c0,5.134-4.178,9.312-9.312,9.312
			c-5.133,0-9.312-4.178-9.312-9.312C35.677,32.518,39.854,28.34,44.988,28.34 M44.988,26.34c-6.247,0-11.312,5.064-11.312,11.312
			s5.064,11.312,11.312,11.312c6.248,0,11.313-5.063,11.313-11.312S51.236,26.34,44.988,26.34L44.988,26.34z"/>
	</g>
	<g id="WTmihk.tif" display="inline">
		
			<image overflow="visible" enable-background="new    " width="243" height="193" id="Layer_0_1_" xlink:href="F2922E77338DC098.png"  transform="matrix(0.2379 0 0 0.2391 64.25 -2.6348)">
		</image>
	</g>
	
		<polyline display="inline" fill="none" stroke="#4A4949" stroke-width="2" stroke-linecap="round" stroke-linejoin="round" stroke-miterlimit="10" points="
		10.958,17.597 26.802,25.784 42.646,17.597 	"/>
	<g display="inline">
		<path fill="#4A4949" d="M44.988,31.825c1.115,0,2.021,0.907,2.021,2.021c0,1.114-0.906,2.021-2.021,2.021
			c-1.113,0-2.021-0.907-2.021-2.021C42.968,32.732,43.875,31.825,44.988,31.825 M44.988,30.314c-1.949,0-3.53,1.582-3.53,3.531
			c0,1.95,1.581,3.531,3.53,3.531c1.951,0,3.531-1.581,3.531-3.531C48.52,31.896,46.939,30.314,44.988,30.314L44.988,30.314z"/>
	</g>
	<g display="inline">
		<path fill="#4A4949" d="M45.052,39.162c2.32,0,4.358,1.244,4.396,2.673c-0.206,0.29-1.55,1.002-4.458,1.002
			c-2.775,0-4.127-0.726-4.333-1.009C40.699,40.402,42.734,39.162,45.052,39.162 M45.052,37.652c-3.263,0-5.905,1.891-5.905,4.222
			c0,1.535,2.58,2.474,5.844,2.474c3.263,0,5.969-0.875,5.969-2.474C50.958,39.543,48.314,37.652,45.052,37.652L45.052,37.652z"/>
	</g>
</g>
<g id="icon-collaboration" display="none">
	<g id="_x39_7HSMp.tif" display="inline">
		
			<image overflow="visible" enable-background="new    " width="361" height="328" id="Layer_0_2_" xlink:href="F2922E77338DC099.png"  transform="matrix(0.1784 0 0 0.1766 71.583 -1.1787)">
		</image>
	</g>
	<g display="inline">
		<path fill="none" stroke="#4A4949" stroke-width="2" stroke-linecap="round" stroke-linejoin="round" stroke-miterlimit="10" d="
			M8.89,29.465c0-0.268,0.005-0.533,0.015-0.799c0.35-9.165,6.691-16.795,15.218-19.084"/>
		<path fill="none" stroke="#4A4949" stroke-width="2" stroke-linecap="round" stroke-linejoin="round" stroke-miterlimit="10" d="
			M9.642,34.998"/>
		<path fill="none" stroke="#4A4949" stroke-width="2" stroke-linecap="round" stroke-linejoin="round" stroke-miterlimit="10" d="
			M39.105,47.664c-2.873,1.523-6.149,2.387-9.628,2.387c-5.735,0-10.921-2.344-14.653-6.125"/>
		<path fill="none" stroke="#4A4949" stroke-width="2" stroke-linecap="round" stroke-linejoin="round" stroke-miterlimit="10" d="
			M44.672,43.354"/>
		<path fill="none" stroke="#4A4949" stroke-width="2" stroke-linecap="round" stroke-linejoin="round" stroke-miterlimit="10" d="
			M40.727,12.22c5.623,3.676,9.338,10.026,9.338,17.245c0,1.744-0.217,3.438-0.625,5.055"/>
		<path fill="none" stroke="#4A4949" stroke-width="2" stroke-linecap="round" stroke-linejoin="round" stroke-miterlimit="10" d="
			M35.145,9.668"/>
	</g>
	<g display="inline">
		<path fill="#4A4949" d="M29.604,4.34c2.379,0,4.312,1.935,4.312,4.312c0,2.378-1.936,4.312-4.312,4.312
			c-2.376,0-4.312-1.935-4.312-4.312C25.293,6.274,27.227,4.34,29.604,4.34 M29.604,2.34c-3.485,0-6.312,2.826-6.312,6.312
			c0,3.487,2.826,6.312,6.312,6.312c3.487,0,6.312-2.826,6.312-6.312C35.917,5.166,33.092,2.34,29.604,2.34L29.604,2.34z"/>
	</g>
	<g display="inline">
		<path fill="#4A4949" d="M47.521,35.34c2.377,0,4.312,1.936,4.312,4.312c0,2.378-1.935,4.312-4.312,4.312s-4.312-1.935-4.312-4.312
			C43.21,37.273,45.145,35.34,47.521,35.34 M47.521,33.34c-3.485,0-6.312,2.825-6.312,6.312c0,3.486,2.826,6.312,6.312,6.312
			s6.312-2.825,6.312-6.312C53.834,36.165,51.009,33.34,47.521,33.34L47.521,33.34z"/>
	</g>
	<g display="inline">
		<path fill="#4A4949" d="M11.771,35.34c2.378,0,4.312,1.936,4.312,4.312c0,2.378-1.935,4.312-4.312,4.312s-4.312-1.935-4.312-4.312
			C7.459,37.273,9.394,35.34,11.771,35.34 M11.771,33.34c-3.485,0-6.312,2.825-6.312,6.312c0,3.486,2.826,6.312,6.312,6.312
			c3.487,0,6.312-2.825,6.312-6.312C18.083,36.165,15.258,33.34,11.771,33.34L11.771,33.34z"/>
	</g>
</g>
<g id="Layer_3">
	<g>
		<path fill="#4A4949" d="M21.478,17.375c10.373,0,18.812,8.438,18.812,18.811C40.289,46.561,31.851,55,21.478,55
			c-10.372,0-18.81-8.439-18.81-18.813C2.667,25.813,11.105,17.375,21.478,17.375 M21.478,15.375
			c-11.491,0-20.81,9.316-20.81,20.811C0.667,47.684,9.986,57,21.478,57c11.496,0,20.812-9.316,20.812-20.813
			C42.291,24.691,32.974,15.375,21.478,15.375L21.478,15.375z"/>
	</g>
	
		<line fill="none" stroke="#4A4949" stroke-width="1.5" stroke-linecap="round" stroke-linejoin="round" stroke-miterlimit="10" x1="21.874" y1="25.021" x2="21.874" y2="37.688"/>
	
		<line fill="none" stroke="#4A4949" stroke-width="1.5" stroke-linecap="round" stroke-linejoin="round" stroke-miterlimit="10" x1="13.957" y1="42.938" x2="21.874" y2="37.688"/>
</g>
</svg>
