<?xml version="1.0" encoding="utf-8"?>
<!-- Generator: Adobe Illustrator 16.0.0, SVG Export Plug-In . SVG Version: 6.00 Build 0)  -->
<!DOCTYPE svg PUBLIC "-//W3C//DTD SVG 1.1//EN" "http://www.w3.org/Graphics/SVG/1.1/DTD/svg11.dtd">
<svg version="1.1" id="Layer_1" xmlns="http://www.w3.org/2000/svg" xmlns:xlink="http://www.w3.org/1999/xlink" x="0px" y="0px"
	 width="264px" height="158px" viewBox="-116.367 -36.653 264 158" enable-background="new -116.367 -36.653 264 158"
	 xml:space="preserve">
<g>
	<path fill="#EFEFEF" stroke="#B6B4B4" stroke-miterlimit="10" d="M120.655,94.977c0,2.814-2.301,5.11-5.111,5.11H-76.065
		c-2.813,0-5.111-2.296-5.111-5.11V-17.656c0-2.812,2.298-5.11,5.111-5.11h191.607c2.812,0,5.111,2.299,5.111,5.11L120.655,94.977
		L120.655,94.977z"/>
	<path fill="#EFEFEF" stroke="#B6B4B4" stroke-miterlimit="10" d="M120.655,100.091l-201.831-0.003V-17.656
		c0-2.812,2.298-5.11,5.111-5.11h191.607c2.812,0,5.111,2.299,5.111,5.11L120.655,100.091L120.655,100.091z"/>
</g>
<g>
	<path fill="#EFEFEF" stroke="#B6B4B4" stroke-miterlimit="10" d="M139.305,110.781c0,2.813-2.302,5.111-5.111,5.111H-94.712
		c-2.812,0-5.112-2.298-5.112-5.111v-5.579c0-2.812,2.3-5.111,5.112-5.111h228.905c2.811,0,5.111,2.299,5.111,5.111L139.305,110.781
		L139.305,110.781z"/>
	<path fill="#EFEFEF" stroke="#B6B4B4" stroke-miterlimit="10" d="M139.305,110.781c0,2.813-2.302,5.111-5.111,5.111H-94.712
		c-2.812,0-5.112-2.298-5.112-5.111v-10.69h239.129L139.305,110.781L139.305,110.781z"/>
</g>
<g>
	<path fill="#EFEFEF" stroke="#B6B4B4" stroke-miterlimit="10" d="M47.533,105.444c0,1.403-0.533,2.546-1.188,2.546H-6.865
		c-0.655,0-1.189-1.143-1.189-2.546v-2.778c0-1.399,0.534-2.548,1.189-2.548h53.212c0.653,0,1.188,1.147,1.188,2.548L47.533,105.444
		L47.533,105.444z"/>
	<path fill="#EFEFEF" stroke="#B6B4B4" stroke-miterlimit="10" d="M47.533,105.444c0,1.403-0.533,2.546-1.188,2.546H-6.865
		c-0.655,0-1.189-1.143-1.189-2.546v-5.326h55.589L47.533,105.444L47.533,105.444z"/>
</g>
<rect x="-73.297" y="-16.185" fill="#FFFFFF" stroke="#B6B4B4" stroke-miterlimit="10" width="186.479" height="116.275"/>
<path fill="none" stroke="#B6B4B4" stroke-miterlimit="10" d="M35.244,88.552h-45.256c-1.405,0-2.556-1.146-2.556-2.556V37.859
	h64.618v31.068"/>
<g>
	<path fill="#FFFFFF" d="M44.25,73.646c0,1.403-1.147,2.556-2.557,2.556H23.084c-1.408,0-2.557-1.151-2.557-2.556v-13.5
		c0-1.405,1.147-2.557,2.557-2.557h18.609c1.408,0,2.557,1.15,2.557,2.557V73.646z"/>
	<path fill="none" stroke="#B6B4B4" stroke-miterlimit="10" d="M44.25,73.646c0,1.403-1.147,2.556-2.557,2.556H23.084
		c-1.408,0-2.557-1.151-2.557-2.556v-13.5c0-1.405,1.147-2.557,2.557-2.557h18.609c1.408,0,2.557,1.15,2.557,2.557V73.646z"/>
</g>
<g>
	<path fill="#FFFFFF" d="M12.604,85.996c0,1.408-1.148,2.556-2.558,2.556H-3.029c-1.407,0-2.556-1.146-2.556-2.556v-25.85
		c0-1.405,1.147-2.557,2.556-2.557h13.075c1.408,0,2.558,1.15,2.558,2.557V85.996z"/>
	<path fill="none" stroke="#B6B4B4" stroke-miterlimit="10" d="M12.604,85.996c0,1.408-1.148,2.556-2.558,2.556H-3.029
		c-1.407,0-2.556-1.146-2.556-2.556v-25.85c0-1.405,1.147-2.557,2.556-2.557h13.075c1.408,0,2.558,1.15,2.558,2.557V85.996z"/>
</g>
<g>
	<path fill="none" stroke="#B6B4B4" stroke-miterlimit="10" d="M43.067,14.857c1.408,0,3.215,0.949,4.014,2.102L60.159,35.76
		c0.799,1.154,0.309,2.101-1.094,2.101h-78.647c-1.404,0-1.898-0.945-1.096-2.101l13.082-18.801
		c0.801-1.152,2.608-2.102,4.013-2.102H43.067z"/>
</g>
<g>
	<path fill="#E14E29" d="M-48.547-7.303c-6.186,0-11.202,5.012-11.202,11.197c0,6.185,5.017,11.202,11.202,11.202
		c6.188,0,11.198-5.018,11.198-11.202C-37.348-2.291-42.36-7.303-48.547-7.303z M-49.917-2.643h2.743v8.681h-2.743V-2.643z
		 M-46.992,9.402c-0.087,0.209-0.205,0.389-0.357,0.539c-0.154,0.157-0.334,0.273-0.539,0.362c-0.21,0.085-0.429,0.132-0.662,0.132
		s-0.451-0.047-0.658-0.132c-0.21-0.082-0.388-0.205-0.542-0.362c-0.152-0.15-0.271-0.33-0.357-0.539
		c-0.085-0.205-0.127-0.424-0.127-0.659c0-0.229,0.042-0.449,0.127-0.659c0.084-0.205,0.205-0.384,0.357-0.539
		c0.153-0.154,0.332-0.27,0.542-0.354c0.207-0.085,0.424-0.13,0.658-0.13c0.232,0,0.452,0.045,0.662,0.13
		c0.205,0.085,0.385,0.2,0.539,0.354c0.152,0.155,0.268,0.334,0.357,0.539c0.085,0.209,0.127,0.43,0.127,0.659
		C-46.864,8.978-46.904,9.198-46.992,9.402z"/>
	<g>
		<line fill="none" stroke="#E14E29" stroke-miterlimit="10" x1="-39.182" y1="13.545" x2="-32.104" y2="20.622"/>
		<line fill="none" stroke="#E14E29" stroke-miterlimit="10" x1="-64.99" y1="-12.829" x2="-57.912" y2="-5.753"/>
		<line fill="none" stroke="#E14E29" stroke-miterlimit="10" x1="-32.104" y1="-12.829" x2="-39.182" y2="-5.753"/>
		<line fill="none" stroke="#E14E29" stroke-miterlimit="10" x1="-57.912" y1="13.531" x2="-64.99" y2="20.606"/>
	</g>
</g>
<g>
	<path fill="none" stroke="#9CC65F" stroke-linecap="round" stroke-miterlimit="10" d="M72.237-24.69"/>
</g>
<path fill="none" stroke="#E14E29" stroke-width="0.5" stroke-miterlimit="10" d="M6.978,41.554"/>
<path fill="#FFFFFF" stroke="#B6B4B4" stroke-miterlimit="10" d="M8.338,41.554"/>
<g>
	<polygon fill="#B6B4B4" points="46.198,84.133 35.074,88.552 39.496,77.43 	"/>
	<polygon fill="#B6B4B4" points="40.257,76.668 58.998,57.928 65.7,64.634 46.963,83.373 	"/>
	
		<rect x="62.74" y="53.89" transform="matrix(0.7071 -0.7071 0.7071 0.7071 -22.4255 63.1207)" fill="#B6B4B4" width="4.482" height="9.48"/>
</g>
<g>
	<g>
		<path fill="#EFEFEF" d="M-28.525,89.42c0,1.992-1.631,3.622-3.622,3.622h-32.224c-1.992,0-3.619-1.63-3.619-3.622V40.91
			c0-1.998,1.627-3.625,3.619-3.625h32.224c1.991,0,3.622,1.627,3.622,3.625V89.42z"/>
		<path fill="none" stroke="#E14E29" stroke-miterlimit="10" d="M-28.525,89.42c0,1.992-1.631,3.622-3.622,3.622h-32.224
			c-1.992,0-3.619-1.63-3.619-3.622V40.91c0-1.998,1.627-3.625,3.619-3.625h32.224c1.991,0,3.622,1.627,3.622,3.625V89.42z"/>
	</g>
	
		<rect x="-67.99" y="72.188" fill="#F4B2A8" stroke="#E14E29" stroke-width="0.5" stroke-miterlimit="10" width="41.588" height="8.911"/>
	<g>
		<g>
			<circle fill="#F4B2A8" cx="-61.565" cy="61.131" r="2.261"/>
			<g>
				<path fill="#FFFFFF" d="M-60.627,60.927l-1.209,1.215l-0.678-0.676v-0.804l0.678,0.672l1.209-1.216V60.927z"/>
			</g>
		</g>
		<path fill="#F4B2A8" d="M-32.677,61.132c0,0.561-0.455,1.014-1.014,1.014h-21.966c-0.559,0-1.012-0.453-1.012-1.014l0,0
			c0-0.562,0.459-1.014,1.012-1.014h21.966C-33.132,60.113-32.677,60.57-32.677,61.132L-32.677,61.132z"/>
	</g>
	<path fill="#E14E29" d="M-32.677,76.641c0,0.562-0.455,1.014-1.014,1.014h-21.966c-0.559,0-1.012-0.454-1.012-1.014l0,0
		c0-0.56,0.459-1.014,1.012-1.014h21.966C-33.132,75.628-32.677,76.082-32.677,76.641L-32.677,76.641z"/>
	<g>
		<g>
			<path fill="#F4B2A8" d="M-61.57,50.157c1.248,0,2.267,1.016,2.267,2.264c0,1.253-1.019,2.268-2.267,2.268
				c-1.254,0-2.268-1.015-2.268-2.268C-63.838,51.173-62.824,50.157-61.57,50.157z"/>
			<g>
				<path fill="#FFFFFF" d="M-60.627,52.221l-1.213,1.213l-0.68-0.675v-0.806l0.68,0.671l1.213-1.213V52.221z"/>
			</g>
		</g>
		<path fill="#F4B2A8" d="M-32.682,52.421c0,0.561-0.453,1.014-1.013,1.014H-55.66c-0.559,0-1.014-0.453-1.014-1.014l0,0
			c0-0.56,0.455-1.011,1.014-1.011h21.965C-33.135,51.407-32.682,51.861-32.682,52.421L-32.682,52.421z"/>
	</g>
	<g>
		<g>
			<path fill="#F4B2A8" d="M-61.57,41.549c1.248,0,2.267,1.015,2.267,2.267c0,1.248-1.019,2.264-2.267,2.264
				c-1.254,0-2.268-1.016-2.268-2.264C-63.838,42.562-62.824,41.549-61.57,41.549z"/>
			<g>
				<path fill="#FFFFFF" d="M-60.627,43.615l-1.213,1.213l-0.68-0.674v-0.81l0.68,0.675l1.213-1.213V43.615z"/>
			</g>
		</g>
		<path fill="#F4B2A8" d="M-32.682,43.814c0,0.56-0.453,1.012-1.013,1.012H-55.66c-0.559,0-1.014-0.455-1.014-1.012l0,0
			c0-0.56,0.455-1.015,1.014-1.015h21.965C-33.135,42.801-32.682,43.256-32.682,43.814L-32.682,43.814z"/>
	</g>
	<g>
		<g>
			<circle fill="#F4B2A8" cx="-61.565" cy="69.194" r="2.263"/>
			<g>
				<path fill="#FFFFFF" d="M-60.627,68.994l-1.209,1.213l-0.678-0.674v-0.809l0.678,0.676l1.209-1.215V68.994z"/>
			</g>
		</g>
		<path fill="#F4B2A8" d="M-32.677,69.195c0,0.562-0.455,1.017-1.014,1.017h-21.966c-0.559,0-1.012-0.457-1.012-1.017l0,0
			c0-0.562,0.459-1.01,1.012-1.01h21.966C-33.132,68.186-32.677,68.635-32.677,69.195L-32.677,69.195z"/>
	</g>
	<g>
		<g>
			<circle fill="#F4B2A8" cx="-61.565" cy="85.327" r="2.261"/>
			<g>
				<path fill="#FFFFFF" d="M-60.627,85.127l-1.209,1.213l-0.678-0.674v-0.809l0.678,0.674l1.209-1.213V85.127z"/>
			</g>
		</g>
		<path fill="#F4B2A8" d="M-32.677,85.327c0,0.563-0.455,1.016-1.014,1.016h-21.966c-0.559,0-1.012-0.455-1.012-1.016l0,0
			c0-0.557,0.459-1.011,1.012-1.011h21.966C-33.132,84.316-32.677,84.771-32.677,85.327L-32.677,85.327z"/>
	</g>
	<path fill="#E14E29" d="M-61.535,74.38c-1.254,0-2.268,1.012-2.268,2.262c0,1.254,1.014,2.268,2.268,2.268
		c1.248,0,2.26-1.014,2.26-2.268C-59.275,75.394-60.287,74.38-61.535,74.38z M-61.813,75.323h0.553v1.755h-0.553V75.323z
		 M-61.225,77.76c-0.017,0.042-0.039,0.074-0.07,0.109c-0.029,0.03-0.064,0.053-0.109,0.07c-0.045,0.015-0.084,0.024-0.129,0.024
		c-0.051,0-0.096-0.011-0.141-0.024c-0.039-0.019-0.074-0.045-0.105-0.07c-0.028-0.035-0.055-0.067-0.073-0.109
		c-0.017-0.045-0.025-0.09-0.025-0.135c0-0.051,0.01-0.09,0.025-0.135c0.02-0.04,0.045-0.078,0.073-0.107
		c0.031-0.032,0.066-0.058,0.105-0.071c0.045-0.019,0.09-0.027,0.141-0.027c0.045,0,0.084,0.01,0.129,0.027
		c0.045,0.015,0.08,0.039,0.109,0.071c0.031,0.029,0.055,0.067,0.07,0.107c0.02,0.045,0.028,0.084,0.028,0.135
		C-61.197,77.67-61.207,77.715-61.225,77.76z"/>
	<g>
		
			<line fill="none" stroke="#E14E29" stroke-width="0.25" stroke-miterlimit="10" x1="-59.643" y1="78.594" x2="-58.216" y2="80.025"/>
		
			<line fill="none" stroke="#E14E29" stroke-width="0.25" stroke-miterlimit="10" x1="-64.865" y1="73.262" x2="-63.432" y2="74.694"/>
		
			<line fill="none" stroke="#E14E29" stroke-width="0.25" stroke-miterlimit="10" x1="-58.216" y1="73.262" x2="-59.643" y2="74.694"/>
		
			<line fill="none" stroke="#E14E29" stroke-width="0.25" stroke-miterlimit="10" x1="-63.432" y1="78.591" x2="-64.865" y2="80.021"/>
	</g>
</g>
<g>
	<g>
		<path fill="none" stroke="#E14E29" stroke-miterlimit="10" d="M-26.094,76.623h11.698c2.193,0,5.259-1.149,6.82-2.55
			l37.371-33.671c1.561-1.402,4.627-2.552,6.825-2.552l14.681,0.003"/>
		<g>
			<circle fill="#E14E29" cx="-25.961" cy="76.623" r="2.645"/>
		</g>
		<g>
			<circle fill="#E14E29" cx="51.171" cy="38.316" r="2.643"/>
		</g>
	</g>
</g>
</svg>
