<?xml version="1.0" encoding="utf-8"?>
<!-- Generator: Adobe Illustrator 16.0.0, SVG Export Plug-In . SVG Version: 6.00 Build 0)  -->
<!DOCTYPE svg PUBLIC "-//W3C//DTD SVG 1.1//EN" "http://www.w3.org/Graphics/SVG/1.1/DTD/svg11.dtd">
<svg version="1.1" id="Layer_1" xmlns="http://www.w3.org/2000/svg" xmlns:xlink="http://www.w3.org/1999/xlink" x="0px" y="0px"
	 width="262.232px" height="117.167px" viewBox="0 0 262.232 117.167" enable-background="new 0 0 262.232 117.167"
	 xml:space="preserve">
<g>
	<path fill="none" stroke="#E34E2A" stroke-miterlimit="10" d="M255.406,109.3c0,1.561-1.275,2.836-2.834,2.836h-70.729
		c-1.56,0-2.835-1.275-2.835-2.836V7.039c0-1.56,1.275-2.835,2.835-2.835h70.729c1.559,0,2.834,1.275,2.834,2.835V109.3
		L255.406,109.3z"/>
</g>
<rect x="179.007" y="71.769" fill="#F6B4AA" stroke="#E34E2A" stroke-miterlimit="10" width="80.5" height="17.246"/>
<g>
	<g>
		<circle fill="#F6B4AA" cx="191.447" cy="50.362" r="4.382"/>
		<g>
			<path fill="#FFFFFF" d="M193.272,49.972l-2.348,2.348l-1.303-1.305V49.45l1.303,1.301l2.348-2.344V49.972z"/>
		</g>
	</g>
	<path fill="#F6B4AA" d="M247.365,50.362c0,1.084-0.879,1.963-1.963,1.963h-42.51c-1.084,0-1.963-0.879-1.963-1.963l0,0
		c0-1.082,0.879-1.961,1.963-1.961h42.51C246.486,48.401,247.365,49.28,247.365,50.362L247.365,50.362z"/>
</g>
<g>
	<g>
		<circle fill="#F6B4AA" cx="191.439" cy="33.504" r="4.382"/>
		<g>
			<path fill="#FFFFFF" d="M193.264,33.113l-2.348,2.348l-1.303-1.305v-1.564l1.303,1.301l2.348-2.344V33.113z"/>
		</g>
	</g>
	<path fill="#F6B4AA" d="M247.357,33.504c0,1.084-0.879,1.963-1.963,1.963h-42.511c-1.084,0-1.963-0.879-1.963-1.963l0,0
		c0-1.082,0.879-1.961,1.963-1.961h42.511C246.478,31.543,247.357,32.422,247.357,33.504L247.357,33.504z"/>
</g>
<g>
	<g>
		<circle fill="#F6B4AA" cx="191.439" cy="16.849" r="4.382"/>
		<g>
			<path fill="#FFFFFF" d="M193.264,16.458l-2.348,2.348l-1.303-1.305v-1.564l1.303,1.301l2.348-2.344V16.458z"/>
		</g>
	</g>
	<path fill="#F6B4AA" d="M247.357,16.849c0,1.084-0.879,1.963-1.963,1.963h-42.511c-1.084,0-1.963-0.879-1.963-1.963l0,0
		c0-1.082,0.879-1.961,1.963-1.961h42.511C246.478,14.888,247.357,15.767,247.357,16.849L247.357,16.849z"/>
</g>
<g>
	<g>
		<circle fill="#F6B4AA" cx="191.447" cy="65.978" r="4.382"/>
		<g>
			<path fill="#FFFFFF" d="M193.272,65.587l-2.348,2.346l-1.303-1.303v-1.564l1.303,1.299l2.348-2.342V65.587z"/>
		</g>
	</g>
	<path fill="#F6B4AA" d="M247.365,65.978c0,1.084-0.879,1.963-1.963,1.963h-42.51c-1.084,0-1.963-0.879-1.963-1.963l0,0
		c0-1.084,0.879-1.963,1.963-1.963h42.51C246.486,64.015,247.365,64.894,247.365,65.978L247.365,65.978z"/>
</g>
<g>
	<path fill="none" stroke="#E34E2A" stroke-miterlimit="10" stroke-dasharray="3.0416,3.0416" d="M247.365,80.524
		c0,1.084-0.879,1.963-1.963,1.963h-42.51c-1.084,0-1.963-0.879-1.963-1.963s0.879-1.963,1.963-1.963h42.51
		C246.486,78.562,247.365,79.44,247.365,80.524z"/>
</g>
<g>
	<g>
		<circle fill="#F6B4AA" cx="191.447" cy="97.206" r="4.382"/>
		<g>
			<path fill="#FFFFFF" d="M193.272,96.815l-2.348,2.347l-1.303-1.304v-1.563l1.303,1.301l2.348-2.344V96.815z"/>
		</g>
	</g>
	<path fill="#F6B4AA" d="M247.365,97.207c0,1.084-0.879,1.963-1.963,1.963h-42.51c-1.084,0-1.963-0.879-1.963-1.963l0,0
		c0-1.082,0.879-1.961,1.963-1.961h42.51C246.486,95.246,247.365,96.125,247.365,97.207L247.365,97.207z"/>
</g>
<path fill="#E34E2A" d="M194.5,76.011c-2.42,0-4.382,1.961-4.382,4.381s1.962,4.383,4.382,4.383s4.382-1.963,4.382-4.383
	S196.92,76.011,194.5,76.011z M193.963,77.835h1.074v3.396h-1.074V77.835z M195.109,82.548c-0.033,0.082-0.08,0.152-0.139,0.211
	c-0.062,0.061-0.132,0.107-0.213,0.141c-0.081,0.034-0.167,0.051-0.258,0.051s-0.177-0.018-0.257-0.051
	c-0.082-0.033-0.152-0.08-0.213-0.141c-0.059-0.059-0.105-0.129-0.139-0.211c-0.034-0.08-0.052-0.166-0.052-0.258
	c0-0.09,0.018-0.176,0.052-0.258c0.032-0.08,0.08-0.15,0.139-0.212c0.061-0.062,0.131-0.104,0.213-0.139
	c0.08-0.033,0.166-0.052,0.257-0.052s0.177,0.019,0.258,0.052c0.081,0.032,0.151,0.077,0.213,0.139
	c0.059,0.062,0.104,0.132,0.139,0.212c0.033,0.082,0.051,0.168,0.051,0.258C195.16,82.382,195.142,82.468,195.109,82.548z"/>
<g>
	<line fill="none" stroke="#E34E2A" stroke-miterlimit="10" x1="198.166" y1="84.167" x2="200.933" y2="86.937"/>
	<line fill="none" stroke="#E34E2A" stroke-miterlimit="10" x1="188.068" y1="73.849" x2="190.835" y2="76.617"/>
	<line fill="none" stroke="#E34E2A" stroke-miterlimit="10" x1="200.933" y1="73.849" x2="198.166" y2="76.617"/>
	<line fill="none" stroke="#E34E2A" stroke-miterlimit="10" x1="190.835" y1="84.162" x2="188.068" y2="86.931"/>
</g>
<g>
	<g>
		<path fill="#F1F1F1" d="M85.667,55.553c0,1.56-1.274,2.835-2.834,2.835H34.017c-1.56,0-2.834-1.275-2.834-2.835V43.664
			c0-1.56,1.274-2.835,2.834-2.835h48.814c1.56,0,2.834,1.275,2.834,2.835L85.667,55.553L85.667,55.553z"/>
		<path fill="none" stroke="#B7B6B6" stroke-width="0.75" stroke-miterlimit="10" d="M85.667,55.553c0,1.56-1.274,2.835-2.834,2.835
			H34.017c-1.56,0-2.834-1.275-2.834-2.835V43.664c0-1.56,1.274-2.835,2.834-2.835h48.814c1.56,0,2.834,1.275,2.834,2.835
			L85.667,55.553L85.667,55.553z"/>
	</g>
	<g>
		<path fill="#B7B6B6" d="M77.868,49.24c0,0.779-0.638,1.417-1.417,1.417H35.464c-0.779,0-1.417-0.638-1.417-1.417v-0.277
			c0-0.779,0.639-1.417,1.417-1.417H76.45c0.78,0,1.417,0.638,1.417,1.417L77.868,49.24L77.868,49.24z"/>
	</g>
	<g>
		<path fill="#B7B6B6" d="M74.399,54.1c0,0.779-0.638,1.417-1.417,1.417H35.464c-0.779,0-1.417-0.638-1.417-1.417v-0.277
			c0-0.779,0.639-1.417,1.417-1.417h37.519c0.78,0,1.417,0.638,1.417,1.417V54.1z"/>
	</g>
	<text transform="matrix(1 0 0 1 34.0461 46.1104)" fill="#706F6F" font-family="'MyriadPro-Regular'" font-size="5">Issue</text>
</g>
<g>
	<g>
		<path fill="#F1F1F1" d="M70.751,74.373c0,1.561-1.274,2.836-2.834,2.836H19.102c-1.56,0-2.834-1.275-2.834-2.836V62.484
			c0-1.561,1.274-2.835,2.834-2.835h48.814c1.56,0,2.834,1.274,2.834,2.835V74.373z"/>
		<path fill="none" stroke="#B7B6B6" stroke-width="0.75" stroke-miterlimit="10" d="M70.751,74.373
			c0,1.561-1.274,2.836-2.834,2.836H19.102c-1.56,0-2.834-1.275-2.834-2.836V62.484c0-1.561,1.274-2.835,2.834-2.835h48.814
			c1.56,0,2.834,1.274,2.834,2.835V74.373z"/>
	</g>
	<g>
		<path fill="#B7B6B6" d="M62.953,68.061c0,0.778-0.638,1.417-1.417,1.417H20.549c-0.779,0-1.417-0.639-1.417-1.417v-0.276
			c0-0.779,0.639-1.418,1.417-1.418h40.986c0.78,0,1.417,0.639,1.417,1.418L62.953,68.061L62.953,68.061z"/>
	</g>
	<g>
		<path fill="#B7B6B6" d="M59.484,72.919c0,0.779-0.638,1.418-1.417,1.418H20.549c-0.779,0-1.417-0.639-1.417-1.418v-0.276
			c0-0.778,0.639-1.417,1.417-1.417h37.519c0.78,0,1.417,0.639,1.417,1.417V72.919z"/>
	</g>
	<text transform="matrix(1 0 0 1 19.1311 64.9312)" fill="#706F6F" font-family="'MyriadPro-Regular'" font-size="5">Issue</text>
</g>
<g>
	<g>
		<path fill="#F1F1F1" d="M58.424,36.462c0,1.56-1.274,2.835-2.834,2.835H6.774c-1.56,0-2.834-1.275-2.834-2.835V24.573
			c0-1.56,1.274-2.835,2.834-2.835H55.59c1.56,0,2.834,1.275,2.834,2.835V36.462z"/>
		<path fill="none" stroke="#B7B6B6" stroke-width="0.75" stroke-miterlimit="10" d="M58.424,36.462c0,1.56-1.274,2.835-2.834,2.835
			H6.774c-1.56,0-2.834-1.275-2.834-2.835V24.573c0-1.56,1.274-2.835,2.834-2.835H55.59c1.56,0,2.834,1.275,2.834,2.835V36.462z"/>
	</g>
	<g>
		<path fill="#B7B6B6" d="M50.625,30.149c0,0.779-0.638,1.417-1.417,1.417H8.222c-0.78,0-1.417-0.638-1.417-1.417v-0.277
			c0-0.779,0.638-1.417,1.417-1.417h40.985c0.78,0,1.417,0.638,1.417,1.417V30.149z"/>
	</g>
	<g>
		<path fill="#B7B6B6" d="M47.157,35.009c0,0.779-0.638,1.417-1.417,1.417H8.222c-0.78,0-1.417-0.638-1.417-1.417v-0.277
			c0-0.779,0.638-1.417,1.417-1.417H45.74c0.78,0,1.417,0.638,1.417,1.417V35.009z"/>
	</g>
	<text transform="matrix(1 0 0 1 6.804 27.0195)" fill="#706F6F" font-family="'ArialMT'" font-size="5">Issue</text>
</g>
<g>
	<g>
		<path fill="#F1F1F1" d="M93.048,25.377c0,1.56-1.274,2.835-2.834,2.835H41.398c-1.56,0-2.834-1.275-2.834-2.835V13.488
			c0-1.56,1.274-2.835,2.834-2.835h48.814c1.56,0,2.834,1.275,2.834,2.835L93.048,25.377L93.048,25.377z"/>
		<path fill="none" stroke="#B7B6B6" stroke-width="0.75" stroke-miterlimit="10" d="M93.048,25.377c0,1.56-1.274,2.835-2.834,2.835
			H41.398c-1.56,0-2.834-1.275-2.834-2.835V13.488c0-1.56,1.274-2.835,2.834-2.835h48.814c1.56,0,2.834,1.275,2.834,2.835
			L93.048,25.377L93.048,25.377z"/>
	</g>
	<g>
		<path fill="#B7B6B6" d="M85.25,19.064c0,0.779-0.638,1.417-1.417,1.417H42.846c-0.78,0-1.417-0.638-1.417-1.417v-0.277
			c0-0.779,0.638-1.417,1.417-1.417h40.985c0.78,0,1.417,0.638,1.417,1.417L85.25,19.064L85.25,19.064z"/>
	</g>
	<g>
		<path fill="#B7B6B6" d="M81.781,23.924c0,0.779-0.638,1.417-1.417,1.417H42.846c-0.78,0-1.417-0.638-1.417-1.417v-0.277
			c0-0.779,0.638-1.417,1.417-1.417h37.518c0.78,0,1.417,0.638,1.417,1.417V23.924z"/>
	</g>
	<text transform="matrix(1 0 0 1 41.428 15.9346)" fill="#706F6F" font-family="'ArialMT'" font-size="5">Issue</text>
</g>
<g>
	<g>
		<path fill="#F1F1F1" d="M61.289,64.621c0,1.561-1.274,2.836-2.834,2.836H9.639c-1.56,0-2.834-1.275-2.834-2.836V52.732
			c0-1.56,1.274-2.835,2.834-2.835h48.814c1.56,0,2.834,1.275,2.834,2.835L61.289,64.621L61.289,64.621z"/>
		<path fill="none" stroke="#B7B6B6" stroke-width="0.75" stroke-miterlimit="10" d="M61.289,64.621
			c0,1.561-1.274,2.836-2.834,2.836H9.639c-1.56,0-2.834-1.275-2.834-2.836V52.732c0-1.56,1.274-2.835,2.834-2.835h48.814
			c1.56,0,2.834,1.275,2.834,2.835L61.289,64.621L61.289,64.621z"/>
	</g>
	<g>
		<path fill="#B7B6B6" d="M53.49,58.309c0,0.778-0.638,1.417-1.417,1.417H11.086c-0.779,0-1.417-0.639-1.417-1.417v-0.277
			c0-0.779,0.639-1.417,1.417-1.417h40.986c0.78,0,1.417,0.638,1.417,1.417L53.49,58.309L53.49,58.309z"/>
	</g>
	<g>
		<path fill="#B7B6B6" d="M50.021,63.167c0,0.779-0.639,1.418-1.417,1.418H11.086c-0.779,0-1.417-0.639-1.417-1.418v-0.276
			c0-0.779,0.639-1.417,1.417-1.417h37.519c0.779,0,1.417,0.638,1.417,1.417V63.167z"/>
	</g>
	<text transform="matrix(1 0 0 1 9.6682 55.1787)" fill="#706F6F" font-family="'ArialMT'" font-size="5">Issue</text>
</g>
<g>
	<g>
		<path fill="#F1F1F1" d="M93.544,81.208c0,1.561-1.274,2.836-2.834,2.836H41.895c-1.56,0-2.834-1.275-2.834-2.836V69.32
			c0-1.561,1.274-2.835,2.834-2.835H90.71c1.56,0,2.834,1.274,2.834,2.835V81.208z"/>
		<path fill="none" stroke="#B7B6B6" stroke-width="0.75" stroke-miterlimit="10" d="M93.544,81.208
			c0,1.561-1.274,2.836-2.834,2.836H41.895c-1.56,0-2.834-1.275-2.834-2.836V69.32c0-1.561,1.274-2.835,2.834-2.835H90.71
			c1.56,0,2.834,1.274,2.834,2.835V81.208z"/>
	</g>
	<g>
		<path fill="#B7B6B6" d="M85.746,74.896c0,0.779-0.638,1.417-1.417,1.417H43.342c-0.779,0-1.417-0.638-1.417-1.417v-0.277
			c0-0.779,0.639-1.416,1.417-1.416h40.986c0.78,0,1.417,0.637,1.417,1.416L85.746,74.896L85.746,74.896z"/>
	</g>
	<g>
		<path fill="#B7B6B6" d="M82.277,79.755c0,0.779-0.638,1.418-1.417,1.418H43.342c-0.779,0-1.417-0.639-1.417-1.418v-0.276
			c0-0.778,0.639-1.417,1.417-1.417H80.86c0.78,0,1.417,0.639,1.417,1.417V79.755z"/>
	</g>
	<text transform="matrix(1 0 0 1 41.9241 71.7671)" fill="#706F6F" font-family="'ArialMT'" font-size="5">Issue</text>
</g>
<g>
	<g>
		<path fill="#F1F1F1" d="M81.465,56.308c0,1.56-1.274,2.835-2.834,2.835H29.815c-1.56,0-2.834-1.275-2.834-2.835V44.419
			c0-1.56,1.274-2.835,2.834-2.835H78.63c1.56,0,2.834,1.275,2.834,2.835L81.465,56.308L81.465,56.308z"/>
		<path fill="none" stroke="#B7B6B6" stroke-width="0.75" stroke-miterlimit="10" d="M81.465,56.308c0,1.56-1.274,2.835-2.834,2.835
			H29.815c-1.56,0-2.834-1.275-2.834-2.835V44.419c0-1.56,1.274-2.835,2.834-2.835H78.63c1.56,0,2.834,1.275,2.834,2.835
			L81.465,56.308L81.465,56.308z"/>
	</g>
	<g>
		<path fill="#B7B6B6" d="M73.666,49.995c0,0.779-0.638,1.417-1.417,1.417H31.262c-0.78,0-1.417-0.638-1.417-1.417v-0.277
			c0-0.779,0.638-1.417,1.417-1.417h40.985c0.78,0,1.417,0.638,1.417,1.417L73.666,49.995L73.666,49.995z"/>
	</g>
	<g>
		<path fill="#B7B6B6" d="M70.197,54.854c0,0.779-0.638,1.417-1.417,1.417H31.262c-0.78,0-1.417-0.638-1.417-1.417v-0.277
			c0-0.779,0.638-1.417,1.417-1.417H68.78c0.78,0,1.417,0.638,1.417,1.417V54.854z"/>
	</g>
	<text transform="matrix(1 0 0 1 29.8445 46.8652)" fill="#706F6F" font-family="'ArialMT'" font-size="5">Issue</text>
</g>
<g>
	<g>
		<path fill="#F1F1F1" d="M105.053,86.335c0,1.561-1.275,2.836-2.834,2.836H53.403c-1.559,0-2.834-1.275-2.834-2.836V74.447
			c0-1.56,1.275-2.835,2.834-2.835h48.814c1.56,0,2.834,1.275,2.834,2.835v11.889H105.053z"/>
		<path fill="none" stroke="#B7B6B6" stroke-width="0.75" stroke-miterlimit="10" d="M105.053,86.335
			c0,1.561-1.275,2.836-2.834,2.836H53.403c-1.559,0-2.834-1.275-2.834-2.836V74.447c0-1.56,1.275-2.835,2.834-2.835h48.814
			c1.56,0,2.834,1.275,2.834,2.835v11.889H105.053z"/>
	</g>
	<g>
		<path fill="#B7B6B6" d="M97.254,80.023c0,0.779-0.638,1.417-1.417,1.417H54.85c-0.78,0-1.417-0.638-1.417-1.417v-0.277
			c0-0.779,0.638-1.416,1.417-1.416h40.985c0.78,0,1.417,0.637,1.417,1.416L97.254,80.023L97.254,80.023z"/>
	</g>
	<g>
		<path fill="#B7B6B6" d="M93.785,84.882c0,0.779-0.638,1.418-1.417,1.418H54.85c-0.78,0-1.417-0.639-1.417-1.418v-0.276
			c0-0.778,0.638-1.417,1.417-1.417h37.518c0.78,0,1.417,0.639,1.417,1.417V84.882z"/>
	</g>
	<text transform="matrix(1 0 0 1 53.4324 76.894)" fill="#706F6F" font-family="'MyriadPro-Regular'" font-size="5">Issue</text>
</g>
<g>
	<g>
		<path fill="#F1F1F1" d="M123.339,42.675c0,1.56-1.274,2.835-2.834,2.835H71.689c-1.56,0-2.834-1.275-2.834-2.835V30.786
			c0-1.56,1.274-2.835,2.834-2.835h48.814c1.56,0,2.834,1.275,2.834,2.835L123.339,42.675L123.339,42.675z"/>
		<path fill="none" stroke="#B7B6B6" stroke-width="0.75" stroke-miterlimit="10" d="M123.339,42.675
			c0,1.56-1.274,2.835-2.834,2.835H71.689c-1.56,0-2.834-1.275-2.834-2.835V30.786c0-1.56,1.274-2.835,2.834-2.835h48.814
			c1.56,0,2.834,1.275,2.834,2.835L123.339,42.675L123.339,42.675z"/>
	</g>
	<g>
		<path fill="#B7B6B6" d="M115.541,36.362c0,0.779-0.638,1.417-1.417,1.417H73.137c-0.78,0-1.417-0.638-1.417-1.417v-0.277
			c0-0.779,0.638-1.417,1.417-1.417h40.985c0.78,0,1.417,0.638,1.417,1.417L115.541,36.362L115.541,36.362z"/>
	</g>
	<g>
		<path fill="#B7B6B6" d="M112.072,41.222c0,0.779-0.638,1.417-1.417,1.417H73.137c-0.78,0-1.417-0.638-1.417-1.417v-0.277
			c0-0.779,0.638-1.417,1.417-1.417h37.518c0.78,0,1.417,0.638,1.417,1.417V41.222z"/>
	</g>
	<text transform="matrix(1 0 0 1 71.719 33.2324)" fill="#706F6F" font-family="'ArialMT'" font-size="5">Issue</text>
</g>
<g>
	<g>
		<path fill="#F1F1F1" d="M61.726,87.878c0,1.561-1.275,2.836-2.834,2.836H10.076c-1.559,0-2.834-1.275-2.834-2.836V75.99
			c0-1.56,1.275-2.834,2.834-2.834h48.815c1.559,0,2.834,1.274,2.834,2.834L61.726,87.878L61.726,87.878z"/>
		<path fill="none" stroke="#B7B6B6" stroke-width="0.75" stroke-miterlimit="10" d="M61.726,87.878
			c0,1.561-1.275,2.836-2.834,2.836H10.076c-1.559,0-2.834-1.275-2.834-2.836V75.99c0-1.56,1.275-2.834,2.834-2.834h48.815
			c1.559,0,2.834,1.274,2.834,2.834L61.726,87.878L61.726,87.878z"/>
	</g>
	<g>
		<path fill="#B7B6B6" d="M53.927,81.566c0,0.779-0.638,1.417-1.417,1.417H11.523c-0.78,0-1.417-0.638-1.417-1.417v-0.277
			c0-0.779,0.638-1.416,1.417-1.416H52.51c0.78,0,1.417,0.637,1.417,1.416V81.566z"/>
	</g>
	<g>
		<path fill="#B7B6B6" d="M50.458,86.425c0,0.779-0.638,1.418-1.417,1.418H11.523c-0.78,0-1.417-0.639-1.417-1.418v-0.276
			c0-0.778,0.638-1.417,1.417-1.417h37.518c0.78,0,1.417,0.639,1.417,1.417V86.425z"/>
	</g>
	<text transform="matrix(1 0 0 1 10.1057 78.437)" fill="#706F6F" font-family="'ArialMT'" font-size="5">Issue</text>
</g>
<g>
	<g>
		<path fill="#F1F1F1" d="M113.204,72.43c0,1.56-1.274,2.835-2.834,2.835H61.554c-1.56,0-2.834-1.275-2.834-2.835v-11.89
			c0-1.56,1.274-2.834,2.834-2.834h48.814c1.56,0,2.834,1.275,2.834,2.834L113.204,72.43L113.204,72.43z"/>
		<path fill="none" stroke="#B7B6B6" stroke-width="0.75" stroke-miterlimit="10" d="M113.204,72.43c0,1.56-1.274,2.835-2.834,2.835
			H61.554c-1.56,0-2.834-1.275-2.834-2.835v-11.89c0-1.56,1.274-2.834,2.834-2.834h48.814c1.56,0,2.834,1.275,2.834,2.834
			L113.204,72.43L113.204,72.43z"/>
	</g>
	<g>
		<path fill="#B7B6B6" d="M105.405,66.117c0,0.779-0.638,1.418-1.417,1.418H63.001c-0.779,0-1.417-0.639-1.417-1.418v-0.277
			c0-0.778,0.639-1.416,1.417-1.416h40.986c0.78,0,1.417,0.638,1.417,1.416L105.405,66.117L105.405,66.117z"/>
	</g>
	<g>
		<path fill="#B7B6B6" d="M101.936,70.977c0,0.778-0.639,1.417-1.417,1.417H63.001c-0.779,0-1.417-0.639-1.417-1.417v-0.276
			c0-0.779,0.639-1.418,1.417-1.418h37.519c0.779,0,1.417,0.639,1.417,1.418V70.977z"/>
	</g>
	<text transform="matrix(1 0 0 1 61.5833 62.9878)" fill="#706F6F" font-family="'ArialMT'" font-size="5">Issue</text>
</g>
<g>
	<g>
		<path fill="#F1F1F1" d="M117.426,95.466c0,1.56-1.274,2.834-2.834,2.834H65.776c-1.56,0-2.834-1.274-2.834-2.834V83.578
			c0-1.561,1.274-2.836,2.834-2.836h48.814c1.56,0,2.834,1.275,2.834,2.836L117.426,95.466L117.426,95.466z"/>
		<path fill="none" stroke="#B7B6B6" stroke-width="0.75" stroke-miterlimit="10" d="M117.426,95.466
			c0,1.56-1.274,2.834-2.834,2.834H65.776c-1.56,0-2.834-1.274-2.834-2.834V83.578c0-1.561,1.274-2.836,2.834-2.836h48.814
			c1.56,0,2.834,1.275,2.834,2.836L117.426,95.466L117.426,95.466z"/>
	</g>
	<g>
		<path fill="#B7B6B6" d="M109.627,89.153c0,0.779-0.638,1.417-1.417,1.417H67.224c-0.78,0-1.417-0.638-1.417-1.417v-0.276
			c0-0.779,0.638-1.418,1.417-1.418h40.985c0.78,0,1.417,0.639,1.417,1.418V89.153z"/>
	</g>
	<g>
		<path fill="#B7B6B6" d="M106.159,94.013c0,0.779-0.638,1.417-1.417,1.417H67.224c-0.78,0-1.417-0.638-1.417-1.417v-0.277
			c0-0.779,0.638-1.417,1.417-1.417h37.518c0.78,0,1.417,0.638,1.417,1.417V94.013z"/>
	</g>
	<text transform="matrix(1 0 0 1 65.8059 86.0229)" fill="#706F6F" font-family="'ArialMT'" font-size="5">Issue</text>
</g>
<g>
	<g>
		<path fill="#F1F1F1" d="M75.103,104.246c0,1.56-1.275,2.834-2.834,2.834H23.453c-1.559,0-2.834-1.274-2.834-2.834v-11.89
			c0-1.56,1.275-2.835,2.834-2.835h48.815c1.559,0,2.834,1.275,2.834,2.835L75.103,104.246L75.103,104.246z"/>
		<path fill="none" stroke="#B7B6B6" stroke-width="0.75" stroke-miterlimit="10" d="M75.103,104.246
			c0,1.56-1.275,2.834-2.834,2.834H23.453c-1.559,0-2.834-1.274-2.834-2.834v-11.89c0-1.56,1.275-2.835,2.834-2.835h48.815
			c1.559,0,2.834,1.275,2.834,2.835L75.103,104.246L75.103,104.246z"/>
	</g>
	<g>
		<path fill="#B7B6B6" d="M67.304,97.933c0,0.779-0.639,1.417-1.417,1.417H24.9c-0.78,0-1.417-0.638-1.417-1.417v-0.277
			c0-0.779,0.638-1.416,1.417-1.416h40.986c0.779,0,1.417,0.637,1.417,1.416L67.304,97.933L67.304,97.933z"/>
	</g>
	<g>
		<path fill="#B7B6B6" d="M63.835,102.792c0,0.778-0.638,1.416-1.417,1.416H24.9c-0.78,0-1.417-0.638-1.417-1.416v-0.277
			c0-0.779,0.638-1.417,1.417-1.417h37.518c0.78,0,1.417,0.638,1.417,1.417V102.792z"/>
	</g>
	<text transform="matrix(1 0 0 1 23.4822 94.8022)" fill="#706F6F" font-family="'ArialMT'" font-size="5">Issue</text>
</g>
<g>
	<g>
		<path fill="none" stroke="#E34E2A" stroke-miterlimit="10" d="M123.414,36.73h9.944c0.78,0,1.991,0.279,2.69,0.622l28.542,13.93
			c0.701,0.343,1.912,0.622,2.691,0.622h9.939"/>
		<g>
			<circle fill="#E34E2A" cx="123.508" cy="36.73" r="1.88"/>
		</g>
		<g>
			<circle fill="#E34E2A" cx="177.128" cy="51.904" r="1.88"/>
		</g>
	</g>
</g>
<g>
	<g>
		<path fill="none" stroke="#E34E2A" stroke-miterlimit="10" d="M92.413,19.433h39.945c0.78,0,1.991,0.279,2.69,0.622l28.542,13.93
			c0.701,0.343,1.912,0.625,2.691,0.628l10.939,0.048"/>
		<g>
			<circle fill="#E34E2A" cx="92.506" cy="19.433" r="1.88"/>
		</g>
		<g>
			<circle fill="#E34E2A" cx="177.128" cy="34.66" r="1.88"/>
		</g>
	</g>
</g>
<g>
	<g>
		<path fill="none" stroke="#E34E2A" stroke-miterlimit="10" d="M79.597,50.801h51.944c0.78,0,1.991,0.279,2.692,0.622l28.542,13.93
			c0.7,0.343,1.911,0.622,2.69,0.622l12.1-0.001"/>
		<g>
			<circle fill="#E34E2A" cx="79.69" cy="50.801" r="1.88"/>
		</g>
		<g>
			<circle fill="#E34E2A" cx="177.472" cy="65.974" r="1.88"/>
		</g>
	</g>
</g>
<g>
	<g>
		<path fill="none" stroke="#E34E2A" stroke-miterlimit="10" d="M113.414,66.262h19.944c0.78,0,1.991,0.278,2.69,0.622l28.542,13.93
			c0.701,0.344,1.912,0.609,2.691,0.594l10.1-0.199"/>
		<g>
			<circle fill="#E34E2A" cx="113.508" cy="66.262" r="1.88"/>
		</g>
		<g>
			<circle fill="#E34E2A" cx="177.289" cy="81.209" r="1.88"/>
		</g>
	</g>
</g>
<g>
	<g>
		<path fill="none" stroke="#E34E2A" stroke-miterlimit="10" d="M61.411,81.935h69.947c0.78,0,1.991,0.279,2.69,0.622l28.543,13.93
			c0.701,0.343,1.912,0.622,2.691,0.622l12.099-0.001"/>
		<g>
			<circle fill="#E34E2A" cx="61.505" cy="81.935" r="1.88"/>
		</g>
		<g>
			<circle fill="#E34E2A" cx="177.288" cy="97.107" r="1.88"/>
		</g>
	</g>
</g>
<g id="cT2Zvy.tif">
</g>
</svg>
